<!-- Generated by readme-aura https://github.com/collectioneur/readme-aura -->
<svg width="860" height="168" viewBox="0 0 860 168" xmlns="http://www.w3.org/2000/svg"><defs><clipPath id="satori_bc-id"><path x="0" y="0" width="860" height="168" d="M16,0 h828 a16,16 0 0 1 16,16 v136 a16,16 0 0 1 -16,16 h-828 a16,16 0 0 1 -16,-16 v-136 a16,16 0 0 1 16,-16"/></clipPath></defs><clipPath id="satori_cp-id"><path x="0" y="0" width="860" height="168" d="M16,0 h828 a16,16 0 0 1 16,16 v136 a16,16 0 0 1 -16,16 h-828 a16,16 0 0 1 -16,-16 v-136 a16,16 0 0 1 16,-16"/></clipPath><mask id="satori_om-id"><rect x="1" y="1" width="858" height="166" fill="#fff"/><path width="860" height="168" fill="none" stroke="#000" stroke-width="2" d="M4.686,4.686 A16,16 0 0 1 16,0 h828 a16,16 0 0 1 16,16 v136 a16,16 0 0 1 -16,16 h-828 a16,16 0 0 1 -16,-16 v-136 A16,16 0 0 1 4.686,4.686"/></mask><path x="0" y="0" width="860" height="168" fill="#08080c" d="M16,0 h828 a16,16 0 0 1 16,16 v136 a16,16 0 0 1 -16,16 h-828 a16,16 0 0 1 -16,-16 v-136 a16,16 0 0 1 16,-16"/><path width="860" height="168" clip-path="url(#satori_bc-id)" fill="none" stroke="rgba(110,80,220,0.18)" stroke-width="2" d="M4.686,4.686 A16,16 0 0 1 16,0 h828 a16,16 0 0 1 16,16 v136 a16,16 0 0 1 -16,16 h-828 a16,16 0 0 1 -16,-16 v-136 A16,16 0 0 1 4.686,4.686"/><clipPath id="satori_cp-id-0" clip-path="url(#satori_cp-id)"><rect x="1" y="1" width="860" height="168"/></clipPath><mask id="satori_om-id-0"><rect x="1" y="1" width="860" height="168" fill="#fff" mask="url(#satori_om-id)"/></mask><svg x="1" y="1" width="860" height="168" preserveAspectRatio="none" clip-path="url(#satori_cp-id-0)" mask="url(#satori_om-id-0)"><defs><radialGradient id="g1" cx="50%" cy="50%" r="50%"><stop offset="0%" stop-color="rgba(115,20,215,0.68)"></stop><stop offset="42%" stop-color="rgba(85,15,175,0.30)"></stop><stop offset="70%" stop-color="rgba(85,15,175,0)"></stop></radialGradient><radialGradient id="g2" cx="50%" cy="50%" r="50%"><stop offset="0%" stop-color="rgba(55,55,255,0.55)"></stop><stop offset="45%" stop-color="rgba(35,45,210,0.22)"></stop><stop offset="70%" stop-color="rgba(35,45,210,0)"></stop></radialGradient><radialGradient id="g3" cx="50%" cy="50%" r="50%"><stop offset="0%" stop-color="rgba(0,130,255,0.42)"></stop><stop offset="50%" stop-color="rgba(0,100,220,0.16)"></stop><stop offset="70%" stop-color="rgba(0,100,220,0)"></stop></radialGradient><radialGradient id="g4" cx="50%" cy="50%" r="50%"><stop offset="0%" stop-color="rgba(0,185,240,0.32)"></stop><stop offset="70%" stop-color="rgba(0,185,240,0)"></stop></radialGradient><radialGradient id="g5" cx="50%" cy="50%" r="50%"><stop offset="0%" stop-color="rgba(100,25,205,0.42)"></stop><stop offset="70%" stop-color="rgba(100,25,205,0)"></stop></radialGradient><radialGradient id="g6" cx="50%" cy="50%" r="50%"><stop offset="0%" stop-color="rgba(60,80,255,0.35)"></stop><stop offset="70%" stop-color="rgba(60,80,255,0)"></stop></radialGradient></defs><ellipse id="glow-1" cx="170" cy="168" rx="260" ry="170" fill="url(#g1)"></ellipse><ellipse id="glow-2" cx="320" cy="178" rx="220" ry="140" fill="url(#g2)"></ellipse><ellipse id="glow-3" cx="460" cy="178" rx="190" ry="130" fill="url(#g3)"></ellipse><ellipse id="glow-4" cx="590" cy="188" rx="160" ry="110" fill="url(#g4)"></ellipse><ellipse id="glow-5" cx="750" cy="188" rx="140" ry="100" fill="url(#g5)"></ellipse><ellipse id="glow-6" cx="420" cy="138" rx="100" ry="80" fill="url(#g6)"></ellipse><style>

         @keyframes float-slow {
           0%, 100% { transform: translateX(0px); opacity: 0.8; }
           50% { transform: translateX(350px); opacity: 1.2; }
         }
         @keyframes float-medium {
           0%, 100% { transform: translateX(0px); opacity: 0.7; }
           50% { transform: translateX(-250px); opacity: 1.1; }
         }
         @keyframes float-fast {
           0%, 100% { transform: translateX(0px); opacity: 0.9; }
           50% { transform: translateX(200px); opacity: 0.6; }
         }
         @keyframes float-diagonal {
           0%, 100% { transform: translate(0px, 0px); opacity: 0.75; }
           50% { transform: translate(120px, 30px); opacity: 1.0; }
         }
         @keyframes float-wave {
           0%, 100% { transform: translateX(0px); opacity: 0.65; }
           33% { transform: translateX(-160px); opacity: 0.9; }
           66% { transform: translateX(80px); opacity: 1.0; }
         }
         @keyframes float-pulse {
           0%, 100% { transform: scale(1); opacity: 0.8; }
           50% { transform: scale(1.3); opacity: 0.4; }
         }
         #glow-1 { animation: float-slow 9s ease-in-out infinite; }
         #glow-2 { animation: float-medium 12s ease-in-out infinite; }
         #glow-3 { animation: float-fast 8s ease-in-out infinite; }
         #glow-4 { animation: float-diagonal 11s ease-in-out infinite reverse; }
         #glow-5 { animation: float-wave 14s ease-in-out infinite reverse; }
         #glow-6 { animation: float-pulse 6s ease-in-out infinite; }
       
</style>
</svg><mask id="satori_om-id-0-0"><rect x="1" y="1" width="0" height="168" fill="#fff" mask="url(#satori_om-id)"/></mask><mask id="satori_om-id-0-0-0"><rect x="1" y="1" width="0" height="168" fill="#fff" mask="url(#satori_om-id)"/></mask><mask id="satori_om-id-0-0-0-0"><rect x="1" y="1" width="0" height="168" fill="#fff" mask="url(#satori_om-id)"/></mask><mask id="satori_om-id-0-0-0-1"><rect x="1" y="1" width="0" height="168" fill="#fff" mask="url(#satori_om-id)"/></mask><mask id="satori_om-id-0-0-0-2"><rect x="1" y="1" width="0" height="168" fill="#fff" mask="url(#satori_om-id)"/></mask><mask id="satori_om-id-0-0-1"><rect x="1" y="1" width="0" height="168" fill="#fff" mask="url(#satori_om-id)"/></mask><mask id="satori_om-id-0-0-1-0"><rect x="1" y="1" width="0" height="168" fill="#fff" mask="url(#satori_om-id)"/></mask><mask id="satori_om-id-0-0-1-1"><rect x="1" y="1" width="0" height="168" fill="#fff" mask="url(#satori_om-id)"/></mask><mask id="satori_om-id-0-0-1-2"><rect x="1" y="1" width="0" height="168" fill="#fff" mask="url(#satori_om-id)"/></mask><mask id="satori_om-id-0-0-2"><rect x="1" y="1" width="0" height="168" fill="#fff" mask="url(#satori_om-id)"/></mask><mask id="satori_om-id-0-0-2-0"><rect x="1" y="1" width="0" height="168" fill="#fff" mask="url(#satori_om-id)"/></mask><mask id="satori_om-id-0-0-2-1"><rect x="1" y="1" width="0" height="168" fill="#fff" mask="url(#satori_om-id)"/></mask><mask id="satori_om-id-0-0-2-2"><rect x="1" y="1" width="0" height="168" fill="#fff" mask="url(#satori_om-id)"/></mask><mask id="satori_om-id-0-0-3"><rect x="1" y="1" width="0" height="168" fill="#fff" mask="url(#satori_om-id)"/></mask><mask id="satori_om-id-0-0-3-0"><rect x="1" y="1" width="0" height="168" fill="#fff" mask="url(#satori_om-id)"/></mask><mask id="satori_om-id-0-0-3-1"><rect x="1" y="1" width="0" height="168" fill="#fff" mask="url(#satori_om-id)"/></mask><mask id="satori_om-id-0-0-4"><rect x="1" y="1" width="0" height="168" fill="#fff" mask="url(#satori_om-id)"/></mask><mask id="satori_om-id-0-0-4-0"><rect x="1" y="1" width="0" height="168" fill="#fff" mask="url(#satori_om-id)"/></mask><mask id="satori_om-id-0-0-4-1"><rect x="1" y="1" width="0" height="168" fill="#fff" mask="url(#satori_om-id)"/></mask><mask id="satori_om-id-0-0-5"><rect x="1" y="1" width="0" height="168" fill="#fff" mask="url(#satori_om-id)"/></mask><mask id="satori_om-id-0-0-5-0"><rect x="1" y="1" width="0" height="168" fill="#fff" mask="url(#satori_om-id)"/></mask><mask id="satori_om-id-0-0-5-1"><rect x="1" y="1" width="0" height="168" fill="#fff" mask="url(#satori_om-id)"/></mask><mask id="satori_om-id-0-1"><rect x="1" y="1" width="0" height="168" fill="#fff" mask="url(#satori_om-id)"/></mask><mask id="satori_om-id-0-2"><rect x="1" y="1" width="0" height="168" fill="#fff" mask="url(#satori_om-id)"/></mask><mask id="satori_om-id-0-3"><rect x="1" y="1" width="0" height="168" fill="#fff" mask="url(#satori_om-id)"/></mask><mask id="satori_om-id-0-4"><rect x="1" y="1" width="0" height="168" fill="#fff" mask="url(#satori_om-id)"/></mask><mask id="satori_om-id-0-5"><rect x="1" y="1" width="0" height="168" fill="#fff" mask="url(#satori_om-id)"/></mask><mask id="satori_om-id-0-6"><rect x="1" y="1" width="0" height="168" fill="#fff" mask="url(#satori_om-id)"/></mask><mask id="satori_om-id-1"><rect x="33" y="19" width="794" height="12" fill="#fff" mask="url(#satori_om-id)"/></mask><g mask="url(#satori_om-id)" clip-path="url(#satori_cp-id)"><path fill="rgba(155,140,210,0.5)" d="M35.6 23.0L33.4 23.0L33.4 21.7L39.3 21.7L39.3 23.0L37.1 23.0L37.1 29L35.6 29L35.6 23.0ZM48.2 29L43.3 29L43.3 21.7L48.2 21.7L48.2 23.0L44.8 23.0L44.8 24.7L47.9 24.7L47.9 25.9L44.8 25.9L44.8 27.8L48.2 27.8L48.2 29ZM55.6 29.1L55.6 29.1Q54.6 29.1 53.9 28.7Q53.1 28.2 52.6 27.4Q52.2 26.5 52.2 25.4L52.2 25.4Q52.2 24.2 52.7 23.3Q53.1 22.5 53.9 22.1Q54.6 21.6 55.6 21.6L55.6 21.6Q56.2 21.6 56.7 21.8Q57.3 22.0 57.7 22.3Q58.1 22.6 58.4 23.1Q58.6 23.6 58.7 24.2L58.7 24.2L57.2 24.2Q57.2 23.9 57.0 23.7Q56.9 23.4 56.7 23.3Q56.5 23.1 56.2 23.0Q55.9 23.0 55.6 23.0L55.6 23.0Q55.0 23.0 54.6 23.2Q54.2 23.5 54.0 24.1Q53.7 24.6 53.7 25.4L53.7 25.4Q53.7 26.2 54.0 26.7Q54.2 27.2 54.6 27.5Q55.0 27.8 55.6 27.8L55.6 27.8Q55.9 27.8 56.2 27.7Q56.5 27.6 56.7 27.4Q56.9 27.3 57.0 27.0Q57.2 26.8 57.2 26.5L57.2 26.5L58.7 26.5Q58.7 27.0 58.4 27.5Q58.2 27.9 57.8 28.3Q57.4 28.7 56.8 28.9Q56.3 29.1 55.6 29.1ZM64.3 29L62.8 29L62.8 21.7L64.3 21.7L64.3 24.7L67.5 24.7L67.5 21.7L69.0 21.7L69.0 29L67.5 29L67.5 25.9L64.3 25.9L64.3 29Z M81.3 29.1L81.3 29.1Q80.4 29.1 79.8 28.8Q79.1 28.6 78.8 28.0Q78.4 27.5 78.4 26.7L78.4 26.7L79.9 26.7Q79.9 27.1 80.1 27.4Q80.3 27.6 80.6 27.7Q80.9 27.8 81.3 27.8L81.3 27.8Q81.7 27.8 82.0 27.7Q82.3 27.6 82.5 27.4Q82.6 27.2 82.6 26.9L82.6 26.9Q82.6 26.7 82.5 26.5Q82.3 26.3 82.0 26.2Q81.8 26.1 81.4 26.0L81.4 26.0L80.6 25.8Q79.6 25.6 79.1 25.1Q78.6 24.6 78.6 23.8L78.6 23.8Q78.6 23.2 78.9 22.7Q79.3 22.2 79.9 21.9Q80.5 21.6 81.3 21.6L81.3 21.6Q82.1 21.6 82.7 21.9Q83.3 22.2 83.7 22.7Q84.0 23.2 84.0 23.8L84.0 23.8L82.6 23.8Q82.5 23.4 82.2 23.1Q81.9 22.9 81.3 22.9L81.3 22.9Q80.9 22.9 80.7 23.0Q80.4 23.1 80.3 23.3Q80.1 23.5 80.1 23.7L80.1 23.7Q80.1 24.0 80.3 24.2Q80.4 24.3 80.7 24.5Q81.0 24.6 81.3 24.6L81.3 24.6L81.9 24.8Q82.4 24.9 82.8 25.1Q83.2 25.3 83.5 25.5Q83.8 25.8 84.0 26.1Q84.1 26.5 84.1 26.9L84.1 26.9Q84.1 27.6 83.8 28.1Q83.5 28.6 82.8 28.8Q82.2 29.1 81.3 29.1ZM90.1 23.0L87.9 23.0L87.9 21.7L93.8 21.7L93.8 23.0L91.6 23.0L91.6 29L90.1 29L90.1 23.0ZM99.1 29L97.4 29L99.9 21.7L101.9 21.7L104.4 29L102.8 29L102.2 27.3L99.6 27.3L99.1 29ZM100.0 26.1L101.8 26.1L101.6 25.5Q101.4 24.8 101.2 24L101.2 24Q101.0 23.5 100.9 22.9L100.9 22.9Q100.7 23.5 100.6 24.0L100.6 24.0Q100.4 24.8 100.2 25.5L100.2 25.5L100.0 26.1ZM111.5 29.1L111.5 29.1Q110.5 29.1 109.8 28.7Q109.0 28.2 108.6 27.4Q108.1 26.5 108.1 25.4L108.1 25.4Q108.1 24.2 108.6 23.3Q109.0 22.5 109.8 22.1Q110.6 21.6 111.5 21.6L111.5 21.6Q112.1 21.6 112.7 21.8Q113.2 22.0 113.6 22.3Q114.0 22.6 114.3 23.1Q114.6 23.6 114.6 24.2L114.6 24.2L113.1 24.2Q113.1 23.9 112.9 23.7Q112.8 23.4 112.6 23.3Q112.4 23.1 112.1 23.0Q111.9 23.0 111.5 23.0L111.5 23.0Q111.0 23.0 110.5 23.2Q110.1 23.5 109.9 24.1Q109.6 24.6 109.6 25.4L109.6 25.4Q109.6 26.2 109.9 26.7Q110.1 27.2 110.5 27.5Q111.0 27.8 111.5 27.8L111.5 27.8Q111.8 27.8 112.1 27.7Q112.4 27.6 112.6 27.4Q112.8 27.3 112.9 27.0Q113.1 26.8 113.1 26.5L113.1 26.5L114.6 26.5Q114.6 27.0 114.3 27.5Q114.1 27.9 113.7 28.3Q113.3 28.7 112.8 28.9Q112.2 29.1 111.5 29.1ZM120.2 29L118.7 29L118.7 21.7L120.2 21.7L120.2 23.7L120.2 25.4Q120.2 25.3 120.3 25.3L120.3 25.3Q120.5 24.9 120.7 24.6Q121.0 24.2 121.3 23.8L121.3 23.8L123.1 21.7L124.9 21.7L122.2 24.9L125.0 29L123.3 29L121.2 25.9L120.2 26.9L120.2 29Z "/></g><mask id="satori_om-id-2"><rect x="33" y="45" width="794" height="103" fill="#fff" mask="url(#satori_om-id)"/></mask><mask id="satori_om-id-2-0"><rect x="33" y="45" width="794" height="25" fill="#fff" mask="url(#satori_om-id)"/></mask><mask id="satori_om-id-2-0-0"><rect x="33" y="52" width="80" height="12" fill="#fff" mask="url(#satori_om-id)"/></mask><g mask="url(#satori_om-id)" clip-path="url(#satori_cp-id)"><path fill="#a78bfa" d="M38.3 62L33.7 62L33.7 54.7L35.1 54.7L35.1 60.8L38.3 60.8L38.3 62ZM41.5 62L39.9 62L42.4 54.7L44.3 54.7L46.9 62L45.2 62L44.7 60.3L42.1 60.3L41.5 62ZM42.5 59.1L44.3 59.1L44.1 58.5Q43.8 57.8 43.6 57L43.6 57Q43.5 56.5 43.3 55.9L43.3 55.9Q43.2 56.5 43.1 57.0L43.1 57.0Q42.9 57.8 42.7 58.5L42.7 58.5L42.5 59.1ZM50.3 62L48.8 62L48.8 54.7L50.4 54.7L52.7 58.4Q52.9 58.7 53.1 59.0Q53.3 59.4 53.5 59.8L53.5 59.8Q53.6 60.0 53.6 60.2L53.6 60.2Q53.6 60.0 53.6 59.8L53.6 59.8Q53.6 59.3 53.6 58.9Q53.6 58.5 53.6 58.2L53.6 58.2L53.6 54.7L55.1 54.7L55.1 62L53.4 62L51.3 58.7Q51.1 58.3 50.9 57.9Q50.7 57.6 50.5 57.1L50.5 57.1Q50.4 56.9 50.2 56.6L50.2 56.6Q50.2 56.9 50.2 57.1L50.2 57.1Q50.3 57.6 50.3 58.0Q50.3 58.4 50.3 58.7L50.3 58.7L50.3 62ZM60.6 62.1L60.6 62.1Q59.6 62.1 58.8 61.6Q58.1 61.2 57.6 60.4Q57.2 59.5 57.2 58.4L57.2 58.4Q57.2 57.2 57.7 56.4Q58.1 55.5 58.9 55.1Q59.6 54.6 60.6 54.6L60.6 54.6Q61.2 54.6 61.7 54.8Q62.3 55.0 62.7 55.3Q63.1 55.6 63.4 56.1Q63.6 56.5 63.7 57.1L63.7 57.1L62.2 57.1Q62.1 56.8 62.0 56.6Q61.8 56.4 61.6 56.2Q61.4 56.1 61.2 56.0Q60.9 56.0 60.6 56.0L60.6 56.0Q60.1 56.0 59.6 56.2Q59.2 56.5 59.0 57.0Q58.7 57.6 58.7 58.4Q58.7 59.1 59.0 59.7Q59.2 60.2 59.6 60.5Q60.0 60.8 60.6 60.8L60.6 60.8Q61.2 60.8 61.5 60.6Q61.9 60.4 62.1 60.0L62.1 60.0Q62.3 59.7 62.3 59.3L62.3 59.3L60.7 59.3L60.7 58.1L63.8 58.1L63.8 59.0Q63.8 60.0 63.4 60.7Q63.0 61.4 62.2 61.7Q61.5 62.1 60.6 62.1ZM68.9 62.1L68.9 62.1Q68.0 62.1 67.3 61.8Q66.7 61.4 66.3 60.8Q65.9 60.2 65.9 59.4L65.9 59.4L65.9 54.7L67.4 54.7L67.4 59.3Q67.4 59.7 67.6 60.1Q67.8 60.4 68.1 60.6Q68.5 60.8 68.9 60.8L68.9 60.8Q69.4 60.8 69.7 60.6Q70.0 60.4 70.2 60.1Q70.4 59.7 70.4 59.3L70.4 59.3L70.4 54.7L71.9 54.7L71.9 59.4Q71.9 60.2 71.5 60.8Q71.2 61.4 70.5 61.8Q69.8 62.1 68.9 62.1ZM75.5 62L73.8 62L76.3 54.7L78.2 54.7L80.8 62L79.1 62L78.6 60.3L76.0 60.3L75.5 62ZM76.4 59.1L78.2 59.1L78.0 58.5Q77.8 57.8 77.5 57L77.5 57Q77.4 56.5 77.3 55.9L77.3 55.9Q77.1 56.5 77.0 57.0L77.0 57.0Q76.8 57.8 76.6 58.5L76.6 58.5L76.4 59.1ZM85.9 62.1L85.9 62.1Q84.9 62.1 84.1 61.6Q83.4 61.2 82.9 60.4Q82.5 59.5 82.5 58.4L82.5 58.4Q82.5 57.2 82.9 56.4Q83.4 55.5 84.2 55.1Q84.9 54.6 85.9 54.6L85.9 54.6Q86.5 54.6 87.0 54.8Q87.6 55.0 88.0 55.3Q88.4 55.6 88.6 56.1Q88.9 56.5 89.0 57.1L89.0 57.1L87.5 57.1Q87.4 56.8 87.2 56.6Q87.1 56.4 86.9 56.2Q86.7 56.1 86.5 56.0Q86.2 56.0 85.9 56.0L85.9 56.0Q85.3 56.0 84.9 56.2Q84.5 56.5 84.2 57.0Q84.0 57.6 84.0 58.4Q84.0 59.1 84.2 59.7Q84.5 60.2 84.9 60.5Q85.3 60.8 85.9 60.8L85.9 60.8Q86.5 60.8 86.8 60.6Q87.2 60.4 87.4 60.0L87.4 60.0Q87.6 59.7 87.6 59.3L87.6 59.3L86.0 59.3L86.0 58.1L89.1 58.1L89.1 59.0Q89.1 60.0 88.6 60.7Q88.2 61.4 87.5 61.7Q86.8 62.1 85.9 62.1ZM96.1 62L91.2 62L91.2 54.7L96.1 54.7L96.1 56.0L92.7 56.0L92.7 57.7L95.8 57.7L95.8 58.9L92.7 58.9L92.7 60.8L96.1 60.8L96.1 62ZM100.9 62.1L100.9 62.1Q100.1 62.1 99.4 61.8Q98.8 61.6 98.4 61.0Q98.0 60.5 98.0 59.7L98.0 59.7L99.5 59.7Q99.5 60.1 99.7 60.4Q99.9 60.6 100.2 60.7Q100.5 60.8 100.9 60.8L100.9 60.8Q101.3 60.8 101.6 60.7Q101.9 60.6 102.1 60.4Q102.2 60.2 102.2 59.9L102.2 59.9Q102.2 59.7 102.1 59.5Q101.9 59.3 101.7 59.2Q101.4 59.1 101.0 59.0L101.0 59.0L100.2 58.8Q99.3 58.6 98.7 58.1Q98.2 57.6 98.2 56.8L98.2 56.8Q98.2 56.2 98.6 55.7Q98.9 55.2 99.5 54.9Q100.2 54.6 101.0 54.6L101.0 54.6Q101.8 54.6 102.4 54.9Q103.0 55.2 103.3 55.7Q103.6 56.2 103.6 56.8L103.6 56.8L102.2 56.8Q102.2 56.4 101.8 56.1Q101.5 55.9 100.9 55.9L100.9 55.9Q100.6 55.9 100.3 56.0Q100.0 56.1 99.9 56.3Q99.8 56.5 99.8 56.7L99.8 56.7Q99.8 57.0 99.9 57.2Q100.1 57.3 100.3 57.5Q100.6 57.6 100.9 57.6L100.9 57.6L101.6 57.8Q102.0 57.9 102.4 58.1Q102.8 58.3 103.1 58.5Q103.4 58.8 103.6 59.1Q103.7 59.5 103.7 59.9L103.7 59.9Q103.7 60.6 103.4 61.1Q103.1 61.6 102.5 61.8Q101.8 62.1 100.9 62.1Z "/></g><mask id="satori_om-id-2-0-1"><rect x="129" y="45" width="438" height="25" fill="#fff" mask="url(#satori_om-id)"/></mask><defs><clipPath id="satori_bc-id-2-0-1-0" clip-path="url(#satori_cp-id)"><path x="129" y="45" width="70" height="25" d="M135,45 h58 a6,6 0 0 1 6,6 v13 a6,6 0 0 1 -6,6 h-58 a6,6 0 0 1 -6,-6 v-13 a6,6 0 0 1 6,-6"/></clipPath></defs><mask id="satori_om-id-2-0-1-0"><rect x="130" y="46" width="68" height="23" fill="#fff" mask="url(#satori_om-id)"/><path width="70" height="25" fill="none" stroke="#000" stroke-width="2" d="M130.757,46.757 A6,6 0 0 1 135,45 h58 a6,6 0 0 1 6,6 v13 a6,6 0 0 1 -6,6 h-58 a6,6 0 0 1 -6,-6 v-13 A6,6 0 0 1 130.757,46.757"/></mask><path x="129" y="45" width="70" height="25" fill="#a78bfa15" d="M135,45 h58 a6,6 0 0 1 6,6 v13 a6,6 0 0 1 -6,6 h-58 a6,6 0 0 1 -6,-6 v-13 a6,6 0 0 1 6,-6" clip-path="url(#satori_cp-id)" mask="url(#satori_om-id)"/><path width="70" height="25" clip-path="url(#satori_bc-id-2-0-1-0)" fill="none" stroke="#a78bfa35" stroke-width="2" d="M130.757,46.757 A6,6 0 0 1 135,45 h58 a6,6 0 0 1 6,6 v13 a6,6 0 0 1 -6,6 h-58 a6,6 0 0 1 -6,-6 v-13 A6,6 0 0 1 130.757,46.757"/><g mask="url(#satori_om-id)" clip-path="url(#satori_cp-id)"><path fill="rgba(225,220,255,0.85)" d="M145.6 62L143.8 62L143.8 53.3L147.2 53.3Q148.2 53.3 148.9 53.6Q149.6 54.0 150.0 54.7Q150.3 55.4 150.3 56.2L150.3 56.2Q150.3 57.1 149.9 57.7Q149.6 58.4 148.9 58.8Q148.2 59.1 147.2 59.1L147.2 59.1L145.6 59.1L145.6 62ZM145.6 54.7L145.6 57.7L146.9 57.7Q147.4 57.7 147.8 57.5Q148.1 57.3 148.3 57.0Q148.5 56.7 148.5 56.2Q148.5 55.8 148.3 55.4Q148.1 55.1 147.8 54.9Q147.4 54.7 146.9 54.7L146.9 54.7L145.6 54.7ZM151.5 64.3L151.5 64.3L151.9 63.0L152.1 63.0Q152.5 63.1 152.7 63.1Q153.0 63.1 153.2 62.9Q153.3 62.7 153.4 62.4L153.4 62.4L153.4 62.0L151.0 55.4L152.8 55.4L153.9 58.8Q154.1 59.5 154.3 60.1L154.3 60.1Q154.3 60.4 154.3 60.6L154.3 60.6Q154.4 60.4 154.4 60.1L154.4 60.1Q154.6 59.5 154.8 58.8L154.8 58.8L156.0 55.4L157.8 55.4L155.0 62.8Q154.8 63.3 154.5 63.7Q154.2 64.1 153.7 64.3Q153.3 64.5 152.6 64.5L152.6 64.5Q152.3 64.5 152.0 64.4Q151.7 64.4 151.5 64.3ZM160.8 55.4L162.0 55.4L162.0 56.8L160.8 56.8L160.8 60.1Q160.8 60.4 160.9 60.5Q161.1 60.7 161.4 60.7L161.4 60.7Q161.5 60.7 161.7 60.7Q161.8 60.6 161.9 60.6L161.9 60.6L162.2 61.9Q161.9 62.0 161.6 62.1Q161.3 62.1 161.0 62.1L161.0 62.1Q160.1 62.1 159.5 61.6Q159.0 61.1 159.0 60.2L159.0 60.2L159.0 56.8L158.1 56.8L158.1 55.4L159.0 55.4L159.0 53.9L160.8 53.9L160.8 55.4ZM164.9 58.2L164.9 58.2L164.9 62L163.1 62L163.1 53.3L164.9 53.3L164.9 56.7Q165.1 56.2 165.5 55.8L165.5 55.8Q166.0 55.4 166.9 55.4L166.9 55.4Q167.5 55.4 168.1 55.7Q168.6 56.0 168.8 56.5Q169.1 57.1 169.1 57.8L169.1 57.8L169.1 62L167.4 62L167.4 58.1Q167.4 57.5 167.0 57.2Q166.7 56.8 166.2 56.8L166.2 56.8Q165.8 56.8 165.5 57.0Q165.2 57.2 165.1 57.5Q164.9 57.8 164.9 58.2ZM173.5 62.1L173.5 62.1Q172.6 62.1 171.8 61.7Q171.1 61.3 170.7 60.5Q170.3 59.8 170.3 58.8L170.3 58.8Q170.3 57.7 170.7 57.0Q171.1 56.2 171.8 55.8Q172.6 55.4 173.5 55.4L173.5 55.4Q174.5 55.4 175.3 55.8Q176.0 56.2 176.4 57.0Q176.8 57.7 176.8 58.8L176.8 58.8Q176.8 59.8 176.4 60.5Q176.0 61.3 175.3 61.7Q174.5 62.1 173.5 62.1ZM173.5 60.7L173.5 60.7Q174.0 60.7 174.3 60.5Q174.6 60.2 174.8 59.8Q175.0 59.3 175.0 58.7L175.0 58.7Q175.0 58.2 174.8 57.7Q174.6 57.3 174.3 57.0Q174.0 56.8 173.5 56.8L173.5 56.8Q173.1 56.8 172.8 57.0Q172.4 57.3 172.3 57.7Q172.1 58.2 172.1 58.7L172.1 58.7Q172.1 59.3 172.3 59.8Q172.4 60.2 172.8 60.5Q173.1 60.7 173.5 60.7ZM179.7 58.2L179.7 58.2L179.7 62L178.0 62L178.0 55.4L179.6 55.4L179.7 56.8Q179.9 56.2 180.3 55.8L180.3 55.8Q180.9 55.4 181.7 55.4L181.7 55.4Q182.4 55.4 182.9 55.7Q183.4 56.0 183.7 56.5Q183.9 57.1 183.9 57.8L183.9 57.8L183.9 62L182.2 62L182.2 58.1Q182.2 57.5 181.9 57.2Q181.6 56.8 181.0 56.8L181.0 56.8Q180.6 56.8 180.3 57.0Q180.1 57.2 179.9 57.5Q179.7 57.8 179.7 58.2Z "/></g><defs><clipPath id="satori_bc-id-2-0-1-1" clip-path="url(#satori_cp-id)"><path x="206" y="45" width="57" height="25" d="M212,45 h45 a6,6 0 0 1 6,6 v13 a6,6 0 0 1 -6,6 h-45 a6,6 0 0 1 -6,-6 v-13 a6,6 0 0 1 6,-6"/></clipPath></defs><mask id="satori_om-id-2-0-1-1"><rect x="207" y="46" width="55" height="23" fill="#fff" mask="url(#satori_om-id)"/><path width="57" height="25" fill="none" stroke="#000" stroke-width="2" d="M207.757,46.757 A6,6 0 0 1 212,45 h45 a6,6 0 0 1 6,6 v13 a6,6 0 0 1 -6,6 h-45 a6,6 0 0 1 -6,-6 v-13 A6,6 0 0 1 207.757,46.757"/></mask><path x="206" y="45" width="57" height="25" fill="#a78bfa15" d="M212,45 h45 a6,6 0 0 1 6,6 v13 a6,6 0 0 1 -6,6 h-45 a6,6 0 0 1 -6,-6 v-13 a6,6 0 0 1 6,-6" clip-path="url(#satori_cp-id)" mask="url(#satori_om-id)"/><path width="57" height="25" clip-path="url(#satori_bc-id-2-0-1-1)" fill="none" stroke="#a78bfa35" stroke-width="2" d="M207.757,46.757 A6,6 0 0 1 212,45 h45 a6,6 0 0 1 6,6 v13 a6,6 0 0 1 -6,6 h-45 a6,6 0 0 1 -6,-6 v-13 A6,6 0 0 1 207.757,46.757"/><g mask="url(#satori_om-id)" clip-path="url(#satori_cp-id)"><path fill="rgba(225,220,255,0.85)" d="M223.3 62.1L223.3 62.1Q222.0 62.1 221.2 61.4Q220.4 60.7 220.4 59.4L220.4 59.4L220.4 58.9L222.2 58.9L222.2 59.4Q222.2 60.0 222.5 60.4Q222.8 60.7 223.3 60.7L223.3 60.7Q223.8 60.7 224.1 60.4Q224.5 60.0 224.5 59.4L224.5 59.4L224.5 53.3L226.2 53.3L226.2 59.4Q226.2 60.7 225.4 61.4Q224.7 62.1 223.3 62.1ZM229.6 62.1L229.6 62.1Q229.0 62.1 228.5 61.9Q228.0 61.7 227.7 61.3Q227.4 60.8 227.4 60.2L227.4 60.2Q227.4 59.6 227.6 59.3Q227.8 58.9 228.2 58.7Q228.5 58.4 229.0 58.3Q229.4 58.2 229.9 58.2L229.9 58.2Q230.5 58.1 230.8 58.0Q231.2 58.0 231.3 57.9Q231.5 57.8 231.5 57.6L231.5 57.6L231.5 57.5Q231.5 57.3 231.4 57.1Q231.2 56.9 231.0 56.8Q230.8 56.7 230.4 56.7L230.4 56.7Q230.1 56.7 229.9 56.8Q229.6 56.9 229.4 57.0Q229.3 57.2 229.2 57.4L229.2 57.4L227.6 57.2Q227.8 56.6 228.2 56.2Q228.6 55.8 229.1 55.6Q229.7 55.4 230.5 55.4L230.5 55.4Q231.0 55.4 231.5 55.5Q232.0 55.6 232.4 55.9Q232.8 56.1 233.0 56.6Q233.2 57.0 233.2 57.6L233.2 57.6L233.2 62L231.6 62L231.6 61.1L231.5 61.1Q231.3 61.4 231.1 61.6Q230.8 61.9 230.5 62.0Q230.1 62.1 229.6 62.1ZM230.1 60.9L230.1 60.9Q230.5 60.9 230.8 60.7Q231.1 60.6 231.3 60.3Q231.5 60.0 231.5 59.7L231.5 59.7L231.5 58.9Q231.4 59.0 231.3 59.1Q231.1 59.1 230.9 59.1Q230.7 59.2 230.5 59.2Q230.3 59.2 230.2 59.2L230.2 59.2Q229.9 59.3 229.6 59.4Q229.4 59.5 229.2 59.7Q229.1 59.8 229.1 60.1L229.1 60.1Q229.1 60.4 229.2 60.5Q229.4 60.7 229.6 60.8Q229.8 60.9 230.1 60.9ZM238.6 62L236.6 62L234.2 55.4L236.0 55.4L237.1 58.8Q237.3 59.5 237.5 60.1L237.5 60.1Q237.5 60.4 237.6 60.6L237.6 60.6Q237.7 60.4 237.7 60.1L237.7 60.1Q237.9 59.5 238.1 58.8L238.1 58.8L239.1 55.4L241.0 55.4L238.6 62ZM243.8 62.1L243.8 62.1Q243.1 62.1 242.6 61.9Q242.1 61.7 241.9 61.3Q241.6 60.8 241.6 60.2L241.6 60.2Q241.6 59.6 241.8 59.3Q242.0 58.9 242.3 58.7Q242.7 58.4 243.1 58.3Q243.6 58.2 244.0 58.2L244.0 58.2Q244.6 58.1 245.0 58.0Q245.3 58.0 245.5 57.9Q245.6 57.8 245.6 57.6L245.6 57.6L245.6 57.5Q245.6 57.3 245.5 57.1Q245.4 56.9 245.2 56.8Q244.9 56.7 244.6 56.7L244.6 56.7Q244.3 56.7 244.0 56.8Q243.8 56.9 243.6 57.0Q243.4 57.2 243.4 57.4L243.4 57.4L241.8 57.2Q241.9 56.6 242.3 56.2Q242.7 55.8 243.3 55.6Q243.9 55.4 244.6 55.4L244.6 55.4Q245.1 55.4 245.6 55.5Q246.1 55.6 246.5 55.9Q246.9 56.1 247.2 56.6Q247.4 57.0 247.4 57.6L247.4 57.6L247.4 62L245.7 62L245.7 61.1L245.7 61.1Q245.5 61.4 245.2 61.6Q245.0 61.9 244.6 62.0Q244.2 62.1 243.8 62.1ZM244.3 60.9L244.3 60.9Q244.7 60.9 245.0 60.7Q245.3 60.6 245.5 60.3Q245.6 60.0 245.6 59.7L245.6 59.7L245.6 58.9Q245.6 59.0 245.4 59.1Q245.3 59.1 245.1 59.1Q244.9 59.2 244.7 59.2Q244.5 59.2 244.3 59.2L244.3 59.2Q244.0 59.3 243.8 59.4Q243.5 59.5 243.4 59.7Q243.3 59.8 243.3 60.1L243.3 60.1Q243.3 60.4 243.4 60.5Q243.5 60.7 243.7 60.8Q244.0 60.9 244.3 60.9Z "/></g><defs><clipPath id="satori_bc-id-2-0-1-2" clip-path="url(#satori_cp-id)"><path x="270" y="45" width="37" height="25" d="M276,45 h25 a6,6 0 0 1 6,6 v13 a6,6 0 0 1 -6,6 h-25 a6,6 0 0 1 -6,-6 v-13 a6,6 0 0 1 6,-6"/></clipPath></defs><mask id="satori_om-id-2-0-1-2"><rect x="271" y="46" width="35" height="23" fill="#fff" mask="url(#satori_om-id)"/><path width="37" height="25" fill="none" stroke="#000" stroke-width="2" d="M271.757,46.757 A6,6 0 0 1 276,45 h25 a6,6 0 0 1 6,6 v13 a6,6 0 0 1 -6,6 h-25 a6,6 0 0 1 -6,-6 v-13 A6,6 0 0 1 271.757,46.757"/></mask><path x="270" y="45" width="37" height="25" fill="#a78bfa15" d="M276,45 h25 a6,6 0 0 1 6,6 v13 a6,6 0 0 1 -6,6 h-25 a6,6 0 0 1 -6,-6 v-13 a6,6 0 0 1 6,-6" clip-path="url(#satori_cp-id)" mask="url(#satori_om-id)"/><path width="37" height="25" clip-path="url(#satori_bc-id-2-0-1-2)" fill="none" stroke="#a78bfa35" stroke-width="2" d="M271.757,46.757 A6,6 0 0 1 276,45 h25 a6,6 0 0 1 6,6 v13 a6,6 0 0 1 -6,6 h-25 a6,6 0 0 1 -6,-6 v-13 A6,6 0 0 1 271.757,46.757"/><g mask="url(#satori_om-id)" clip-path="url(#satori_cp-id)"><path fill="rgba(225,220,255,0.85)" d="M288.6 62.1L288.6 62.1Q287.4 62.1 286.5 61.6Q285.6 61.1 285.1 60.1Q284.6 59.1 284.6 57.6L284.6 57.6Q284.6 56.2 285.1 55.2Q285.6 54.2 286.5 53.7Q287.5 53.2 288.6 53.2L288.6 53.2Q289.3 53.2 290.0 53.4Q290.6 53.6 291.1 54.0Q291.6 54.4 291.9 54.9Q292.3 55.5 292.4 56.3L292.4 56.3L290.6 56.3Q290.5 55.9 290.3 55.6Q290.2 55.3 289.9 55.1Q289.7 54.9 289.3 54.8Q289.0 54.7 288.6 54.7L288.6 54.7Q288.0 54.7 287.4 55.1Q286.9 55.4 286.7 56.1Q286.4 56.7 286.4 57.6L286.4 57.6Q286.4 58.6 286.7 59.2Q286.9 59.9 287.5 60.2Q288.0 60.5 288.6 60.5L288.6 60.5Q289.0 60.5 289.3 60.4Q289.6 60.3 289.9 60.1Q290.2 59.9 290.3 59.7Q290.5 59.4 290.6 59.0L290.6 59.0L292.4 59.0Q292.3 59.6 292.0 60.2Q291.7 60.7 291.2 61.2Q290.8 61.6 290.1 61.9Q289.4 62.1 288.6 62.1Z "/></g><defs><clipPath id="satori_bc-id-2-0-1-3" clip-path="url(#satori_cp-id)"><path x="314" y="45" width="54" height="25" d="M320,45 h42 a6,6 0 0 1 6,6 v13 a6,6 0 0 1 -6,6 h-42 a6,6 0 0 1 -6,-6 v-13 a6,6 0 0 1 6,-6"/></clipPath></defs><mask id="satori_om-id-2-0-1-3"><rect x="315" y="46" width="52" height="23" fill="#fff" mask="url(#satori_om-id)"/><path width="54" height="25" fill="none" stroke="#000" stroke-width="2" d="M315.757,46.757 A6,6 0 0 1 320,45 h42 a6,6 0 0 1 6,6 v13 a6,6 0 0 1 -6,6 h-42 a6,6 0 0 1 -6,-6 v-13 A6,6 0 0 1 315.757,46.757"/></mask><path x="314" y="45" width="54" height="25" fill="#a78bfa15" d="M320,45 h42 a6,6 0 0 1 6,6 v13 a6,6 0 0 1 -6,6 h-42 a6,6 0 0 1 -6,-6 v-13 a6,6 0 0 1 6,-6" clip-path="url(#satori_cp-id)" mask="url(#satori_om-id)"/><path width="54" height="25" clip-path="url(#satori_bc-id-2-0-1-3)" fill="none" stroke="#a78bfa35" stroke-width="2" d="M315.757,46.757 A6,6 0 0 1 320,45 h42 a6,6 0 0 1 6,6 v13 a6,6 0 0 1 -6,6 h-42 a6,6 0 0 1 -6,-6 v-13 A6,6 0 0 1 315.757,46.757"/><g mask="url(#satori_om-id)" clip-path="url(#satori_cp-id)"><path fill="rgba(225,220,255,0.85)" d="M332.6 62.1L332.6 62.1Q331.4 62.1 330.5 61.6Q329.6 61.1 329.1 60.1Q328.6 59.1 328.6 57.6L328.6 57.6Q328.6 56.2 329.1 55.2Q329.6 54.2 330.5 53.7Q331.5 53.2 332.6 53.2L332.6 53.2Q333.3 53.2 334.0 53.4Q334.6 53.6 335.1 54.0Q335.6 54.4 335.9 54.9Q336.3 55.5 336.4 56.3L336.4 56.3L334.6 56.3Q334.5 55.9 334.3 55.6Q334.2 55.3 333.9 55.1Q333.7 54.9 333.3 54.8Q333.0 54.7 332.6 54.7L332.6 54.7Q332.0 54.7 331.4 55.1Q330.9 55.4 330.7 56.1Q330.4 56.7 330.4 57.6L330.4 57.6Q330.4 58.6 330.7 59.2Q330.9 59.9 331.5 60.2Q332.0 60.5 332.6 60.5L332.6 60.5Q333.0 60.5 333.3 60.4Q333.6 60.3 333.9 60.1Q334.2 59.9 334.3 59.7Q334.5 59.4 334.6 59.0L334.6 59.0L336.4 59.0Q336.3 59.6 336.0 60.2Q335.7 60.7 335.2 61.2Q334.8 61.6 334.1 61.9Q333.4 62.1 332.6 62.1ZM341.7 61.5L340.2 61.5L340.2 59.2L337.9 59.2L337.9 57.8L340.2 57.8L340.2 55.5L341.7 55.5L341.7 57.8L344.0 57.8L344.0 59.2L341.7 59.2L341.7 61.5ZM349.8 61.5L348.3 61.5L348.3 59.2L346.1 59.2L346.1 57.8L348.3 57.8L348.3 55.5L349.8 55.5L349.8 57.8L352.1 57.8L352.1 59.2L349.8 59.2L349.8 61.5Z "/></g><defs><clipPath id="satori_bc-id-2-0-1-4" clip-path="url(#satori_cp-id)"><path x="375" y="45" width="92" height="25" d="M381,45 h80 a6,6 0 0 1 6,6 v13 a6,6 0 0 1 -6,6 h-80 a6,6 0 0 1 -6,-6 v-13 a6,6 0 0 1 6,-6"/></clipPath></defs><mask id="satori_om-id-2-0-1-4"><rect x="376" y="46" width="90" height="23" fill="#fff" mask="url(#satori_om-id)"/><path width="92" height="25" fill="none" stroke="#000" stroke-width="2" d="M376.757,46.757 A6,6 0 0 1 381,45 h80 a6,6 0 0 1 6,6 v13 a6,6 0 0 1 -6,6 h-80 a6,6 0 0 1 -6,-6 v-13 A6,6 0 0 1 376.757,46.757"/></mask><path x="375" y="45" width="92" height="25" fill="#a78bfa15" d="M381,45 h80 a6,6 0 0 1 6,6 v13 a6,6 0 0 1 -6,6 h-80 a6,6 0 0 1 -6,-6 v-13 a6,6 0 0 1 6,-6" clip-path="url(#satori_cp-id)" mask="url(#satori_om-id)"/><path width="92" height="25" clip-path="url(#satori_bc-id-2-0-1-4)" fill="none" stroke="#a78bfa35" stroke-width="2" d="M376.757,46.757 A6,6 0 0 1 381,45 h80 a6,6 0 0 1 6,6 v13 a6,6 0 0 1 -6,6 h-80 a6,6 0 0 1 -6,-6 v-13 A6,6 0 0 1 376.757,46.757"/><g mask="url(#satori_om-id)" clip-path="url(#satori_cp-id)"><path fill="rgba(225,220,255,0.85)" d="M392.3 62.1L392.3 62.1Q391.0 62.1 390.2 61.4Q389.4 60.7 389.4 59.4L389.4 59.4L389.4 58.9L391.2 58.9L391.2 59.4Q391.2 60.0 391.5 60.4Q391.8 60.7 392.3 60.7L392.3 60.7Q392.8 60.7 393.1 60.4Q393.5 60.0 393.5 59.4L393.5 59.4L393.5 53.3L395.2 53.3L395.2 59.4Q395.2 60.7 394.4 61.4Q393.7 62.1 392.3 62.1ZM398.6 62.1L398.6 62.1Q398.0 62.1 397.5 61.9Q397.0 61.7 396.7 61.3Q396.4 60.8 396.4 60.2L396.4 60.2Q396.4 59.6 396.6 59.3Q396.8 58.9 397.2 58.7Q397.5 58.4 398.0 58.3Q398.4 58.2 398.9 58.2L398.9 58.2Q399.5 58.1 399.8 58.0Q400.2 58.0 400.3 57.9Q400.5 57.8 400.5 57.6L400.5 57.6L400.5 57.5Q400.5 57.3 400.4 57.1Q400.2 56.9 400.0 56.8Q399.8 56.7 399.4 56.7L399.4 56.7Q399.1 56.7 398.9 56.8Q398.6 56.9 398.4 57.0Q398.3 57.2 398.2 57.4L398.2 57.4L396.6 57.2Q396.8 56.6 397.2 56.2Q397.6 55.8 398.1 55.6Q398.7 55.4 399.5 55.4L399.5 55.4Q400.0 55.4 400.5 55.5Q401.0 55.6 401.4 55.9Q401.8 56.1 402.0 56.6Q402.2 57.0 402.2 57.6L402.2 57.6L402.2 62L400.6 62L400.6 61.1L400.5 61.1Q400.3 61.4 400.1 61.6Q399.8 61.9 399.5 62.0Q399.1 62.1 398.6 62.1ZM399.1 60.9L399.1 60.9Q399.5 60.9 399.8 60.7Q400.1 60.6 400.3 60.3Q400.5 60.0 400.5 59.7L400.5 59.7L400.5 58.9Q400.4 59.0 400.3 59.1Q400.1 59.1 399.9 59.1Q399.7 59.2 399.5 59.2Q399.3 59.2 399.2 59.2L399.2 59.2Q398.9 59.3 398.6 59.4Q398.4 59.5 398.2 59.7Q398.1 59.8 398.1 60.1L398.1 60.1Q398.1 60.4 398.2 60.5Q398.4 60.7 398.6 60.8Q398.8 60.9 399.1 60.9ZM407.6 62L405.6 62L403.2 55.4L405.0 55.4L406.1 58.8Q406.3 59.5 406.5 60.1L406.5 60.1Q406.5 60.4 406.6 60.6L406.6 60.6Q406.7 60.4 406.7 60.1L406.7 60.1Q406.9 59.5 407.1 58.8L407.1 58.8L408.1 55.4L410.0 55.4L407.6 62ZM412.8 62.1L412.8 62.1Q412.1 62.1 411.6 61.9Q411.1 61.7 410.9 61.3Q410.6 60.8 410.6 60.2L410.6 60.2Q410.6 59.6 410.8 59.3Q411.0 58.9 411.3 58.7Q411.7 58.4 412.1 58.3Q412.6 58.2 413.0 58.2L413.0 58.2Q413.6 58.1 414.0 58.0Q414.3 58.0 414.5 57.9Q414.6 57.8 414.6 57.6L414.6 57.6L414.6 57.5Q414.6 57.3 414.5 57.1Q414.4 56.9 414.2 56.8Q413.9 56.7 413.6 56.7L413.6 56.7Q413.3 56.7 413.0 56.8Q412.8 56.9 412.6 57.0Q412.4 57.2 412.4 57.4L412.4 57.4L410.8 57.2Q410.9 56.6 411.3 56.2Q411.7 55.8 412.3 55.6Q412.9 55.4 413.6 55.4L413.6 55.4Q414.1 55.4 414.6 55.5Q415.1 55.6 415.5 55.9Q415.9 56.1 416.2 56.6Q416.4 57.0 416.4 57.6L416.4 57.6L416.4 62L414.7 62L414.7 61.1L414.7 61.1Q414.5 61.4 414.2 61.6Q414.0 61.9 413.6 62.0Q413.2 62.1 412.8 62.1ZM413.3 60.9L413.3 60.9Q413.7 60.9 414.0 60.7Q414.3 60.6 414.5 60.3Q414.6 60.0 414.6 59.7L414.6 59.7L414.6 58.9Q414.6 59.0 414.4 59.1Q414.3 59.1 414.1 59.1Q413.9 59.2 413.7 59.2Q413.5 59.2 413.3 59.2L413.3 59.2Q413.0 59.3 412.8 59.4Q412.5 59.5 412.4 59.7Q412.3 59.8 412.3 60.1L412.3 60.1Q412.3 60.4 412.4 60.5Q412.5 60.7 412.7 60.8Q413.0 60.9 413.3 60.9ZM421.1 62.1L421.1 62.1Q420.1 62.1 419.3 61.8Q418.5 61.5 418.1 60.9Q417.7 60.2 417.6 59.3L417.6 59.3L419.4 59.3Q419.4 59.7 419.6 60.0Q419.9 60.3 420.3 60.5Q420.6 60.6 421.1 60.6L421.1 60.6Q421.6 60.6 422.0 60.5Q422.3 60.3 422.5 60.1Q422.7 59.8 422.7 59.5L422.7 59.5Q422.7 59.2 422.5 59.0Q422.3 58.8 422.0 58.7Q421.7 58.5 421.2 58.4L421.2 58.4L420.2 58.2Q419.1 57.9 418.5 57.3Q417.9 56.7 417.9 55.8L417.9 55.8Q417.9 55.0 418.3 54.4Q418.7 53.8 419.5 53.5Q420.2 53.2 421.2 53.2L421.2 53.2Q422.1 53.2 422.8 53.5Q423.6 53.8 424.0 54.4Q424.4 55.0 424.4 55.8L424.4 55.8L422.7 55.8Q422.6 55.2 422.2 54.9Q421.8 54.7 421.1 54.7L421.1 54.7Q420.7 54.7 420.4 54.8Q420.0 54.9 419.9 55.1Q419.7 55.4 419.7 55.7L419.7 55.7Q419.7 56.0 419.9 56.2Q420.1 56.4 420.4 56.5Q420.7 56.7 421.1 56.8L421.1 56.8L421.9 57.0Q422.4 57.1 422.9 57.3Q423.4 57.5 423.8 57.8Q424.1 58.1 424.3 58.5Q424.5 59.0 424.5 59.5L424.5 59.5Q424.5 60.3 424.1 60.9Q423.7 61.5 422.9 61.8Q422.2 62.1 421.1 62.1ZM428.7 62.1L428.7 62.1Q427.7 62.1 427.0 61.7Q426.3 61.3 425.9 60.5Q425.5 59.8 425.5 58.8L425.5 58.8Q425.5 57.7 425.9 57.0Q426.3 56.2 427.0 55.8Q427.7 55.4 428.7 55.4L428.7 55.4Q429.3 55.4 429.8 55.5Q430.2 55.7 430.6 56.0Q431.0 56.2 431.3 56.6Q431.5 57.0 431.6 57.5L431.6 57.5L430.0 57.9Q429.9 57.6 429.8 57.4Q429.7 57.2 429.5 57.0Q429.4 56.9 429.2 56.8Q428.9 56.8 428.7 56.8L428.7 56.8Q428.2 56.8 427.9 57.0Q427.6 57.3 427.4 57.7Q427.3 58.2 427.3 58.7L427.3 58.7Q427.3 59.3 427.4 59.8Q427.6 60.2 427.9 60.5Q428.2 60.7 428.7 60.7L428.7 60.7Q428.9 60.7 429.2 60.7Q429.4 60.6 429.5 60.4Q429.7 60.3 429.8 60.1Q429.9 59.9 430.0 59.6L430.0 59.6L431.6 59.9Q431.5 60.4 431.3 60.8Q431.0 61.2 430.6 61.5Q430.3 61.8 429.8 62.0Q429.3 62.1 428.7 62.1ZM434.6 62L432.8 62L432.8 55.4L434.5 55.4L434.5 56.6L434.6 56.6Q434.8 56.0 435.2 55.7Q435.6 55.4 436.2 55.4L436.2 55.4Q436.3 55.4 436.5 55.4Q436.6 55.4 436.7 55.4L436.7 55.4L436.7 57.0Q436.6 56.9 436.4 56.9Q436.2 56.9 436.0 56.9L436.0 56.9Q435.6 56.9 435.2 57.1Q434.9 57.2 434.7 57.6Q434.6 57.9 434.6 58.3L434.6 58.3L434.6 62ZM439.5 62L437.7 62L437.7 55.4L439.5 55.4L439.5 62ZM438.6 54.6L438.6 54.6Q438.2 54.6 437.9 54.3Q437.6 54.1 437.6 53.7L437.6 53.7Q437.6 53.3 437.9 53.1Q438.2 52.8 438.6 52.8L438.6 52.8Q439.0 52.8 439.3 53.0Q439.5 53.3 439.5 53.7L439.5 53.7Q439.5 54.1 439.3 54.3Q439.0 54.6 438.6 54.6ZM442.7 64.4L440.9 64.4L440.9 55.4L442.7 55.4L442.7 56.6L442.8 56.6Q442.9 56.3 443.1 56.0Q443.3 55.7 443.7 55.6Q444.1 55.4 444.6 55.4L444.6 55.4Q445.4 55.4 446.0 55.7Q446.6 56.1 446.9 56.9Q447.3 57.6 447.3 58.7L447.3 58.7Q447.3 59.8 446.9 60.6Q446.6 61.3 446.0 61.7Q445.4 62.1 444.6 62.1L444.6 62.1Q444.1 62.1 443.7 61.9Q443.3 61.7 443.1 61.5Q442.9 61.2 442.8 61.0L442.8 61.0L442.7 61.0L442.7 64.4ZM444.1 60.7L444.1 60.7Q444.5 60.7 444.8 60.4Q445.2 60.2 445.3 59.8Q445.5 59.3 445.5 58.7L445.5 58.7Q445.5 58.2 445.3 57.7Q445.2 57.3 444.9 57.0Q444.5 56.8 444.1 56.8L444.1 56.8Q443.6 56.8 443.3 57.0Q443.0 57.3 442.8 57.7Q442.7 58.1 442.7 58.7L442.7 58.7Q442.7 59.3 442.8 59.8Q443 60.2 443.3 60.5Q443.6 60.7 444.1 60.7ZM450.5 55.4L451.8 55.4L451.8 56.8L450.5 56.8L450.5 60.1Q450.5 60.4 450.7 60.5Q450.8 60.7 451.1 60.7L451.1 60.7Q451.2 60.7 451.4 60.7Q451.6 60.6 451.7 60.6L451.7 60.6L451.9 61.9Q451.7 62.0 451.4 62.1Q451.1 62.1 450.8 62.1L450.8 62.1Q449.8 62.1 449.3 61.6Q448.8 61.1 448.8 60.2L448.8 60.2L448.8 56.8L447.9 56.8L447.9 55.4L448.8 55.4L448.8 53.9L450.5 53.9L450.5 55.4Z "/></g><defs><clipPath id="satori_bc-id-2-0-1-5" clip-path="url(#satori_cp-id)"><path x="474" y="45" width="93" height="25" d="M480,45 h81 a6,6 0 0 1 6,6 v13 a6,6 0 0 1 -6,6 h-81 a6,6 0 0 1 -6,-6 v-13 a6,6 0 0 1 6,-6"/></clipPath></defs><mask id="satori_om-id-2-0-1-5"><rect x="475" y="46" width="91" height="23" fill="#fff" mask="url(#satori_om-id)"/><path width="93" height="25" fill="none" stroke="#000" stroke-width="2" d="M475.757,46.757 A6,6 0 0 1 480,45 h81 a6,6 0 0 1 6,6 v13 a6,6 0 0 1 -6,6 h-81 a6,6 0 0 1 -6,-6 v-13 A6,6 0 0 1 475.757,46.757"/></mask><path x="474" y="45" width="93" height="25" fill="#a78bfa15" d="M480,45 h81 a6,6 0 0 1 6,6 v13 a6,6 0 0 1 -6,6 h-81 a6,6 0 0 1 -6,-6 v-13 a6,6 0 0 1 6,-6" clip-path="url(#satori_cp-id)" mask="url(#satori_om-id)"/><path width="93" height="25" clip-path="url(#satori_bc-id-2-0-1-5)" fill="none" stroke="#a78bfa35" stroke-width="2" d="M475.757,46.757 A6,6 0 0 1 480,45 h81 a6,6 0 0 1 6,6 v13 a6,6 0 0 1 -6,6 h-81 a6,6 0 0 1 -6,-6 v-13 A6,6 0 0 1 475.757,46.757"/><g mask="url(#satori_om-id)" clip-path="url(#satori_cp-id)"><path fill="rgba(225,220,255,0.85)" d="M491.1 54.8L488.4 54.8L488.4 53.3L495.6 53.3L495.6 54.8L492.9 54.8L492.9 62L491.1 62L491.1 54.8ZM496.7 64.3L496.7 64.3L497.1 63.0L497.3 63.0Q497.7 63.1 498.0 63.1Q498.2 63.1 498.4 62.9Q498.6 62.7 498.6 62.4L498.6 62.4L498.7 62.0L496.2 55.4L498.1 55.4L499.2 58.8Q499.4 59.5 499.5 60.1L499.5 60.1Q499.5 60.4 499.6 60.6L499.6 60.6Q499.6 60.4 499.7 60.1L499.7 60.1Q499.8 59.5 500.1 58.8L500.1 58.8L501.2 55.4L503.0 55.4L500.3 62.8Q500.1 63.3 499.8 63.7Q499.4 64.1 499.0 64.3Q498.5 64.5 497.9 64.5L497.9 64.5Q497.5 64.5 497.2 64.4Q496.9 64.4 496.7 64.3ZM505.7 64.4L504.0 64.4L504.0 55.4L505.7 55.4L505.7 56.6L505.8 56.6Q505.9 56.3 506.1 56.0Q506.4 55.7 506.7 55.6Q507.1 55.4 507.7 55.4L507.7 55.4Q508.4 55.4 509.0 55.7Q509.6 56.1 510.0 56.9Q510.3 57.6 510.3 58.7L510.3 58.7Q510.3 59.8 510.0 60.6Q509.6 61.3 509.0 61.7Q508.4 62.1 507.7 62.1L507.7 62.1Q507.1 62.1 506.8 61.9Q506.4 61.7 506.1 61.5Q505.9 61.2 505.8 61.0L505.8 61.0L505.7 61.0L505.7 64.4ZM507.1 60.7L507.1 60.7Q507.6 60.7 507.9 60.4Q508.2 60.2 508.4 59.8Q508.5 59.3 508.5 58.7L508.5 58.7Q508.5 58.2 508.4 57.7Q508.2 57.3 507.9 57.0Q507.6 56.8 507.1 56.8L507.1 56.8Q506.7 56.8 506.3 57.0Q506.0 57.3 505.9 57.7Q505.7 58.1 505.7 58.7L505.7 58.7Q505.7 59.3 505.9 59.8Q506.0 60.2 506.4 60.5Q506.7 60.7 507.1 60.7ZM514.5 62.1L514.5 62.1Q513.5 62.1 512.8 61.7Q512.1 61.3 511.7 60.6Q511.3 59.8 511.3 58.8L511.3 58.8Q511.3 57.7 511.7 57.0Q512.0 56.2 512.8 55.8Q513.5 55.4 514.4 55.4L514.4 55.4Q515.1 55.4 515.6 55.6Q516.2 55.8 516.6 56.2Q517.0 56.6 517.3 57.2Q517.5 57.8 517.5 58.7L517.5 58.7L517.5 59.2L513.0 59.2Q513.0 59.7 513.2 60.0L513.2 60.0Q513.4 60.4 513.7 60.6Q514.1 60.8 514.5 60.8L514.5 60.8Q514.8 60.8 515.1 60.7Q515.4 60.6 515.5 60.5Q515.7 60.3 515.8 60.0L515.8 60.0L517.4 60.3Q517.2 60.9 516.8 61.3Q516.5 61.7 515.9 61.9Q515.3 62.1 514.5 62.1ZM513.0 58.1L513.0 58.1L515.8 58.1Q515.8 57.8 515.7 57.5L515.7 57.5Q515.5 57.1 515.2 56.9Q514.9 56.7 514.4 56.7L514.4 56.7Q514.0 56.7 513.7 56.9Q513.3 57.1 513.2 57.5L513.2 57.5Q513.1 57.7 513.0 58.1ZM521.9 62.1L521.9 62.1Q520.9 62.1 520.1 61.8Q519.3 61.5 518.9 60.9Q518.5 60.2 518.4 59.3L518.4 59.3L520.2 59.3Q520.2 59.7 520.4 60.0Q520.7 60.3 521.1 60.5Q521.4 60.6 521.9 60.6L521.9 60.6Q522.4 60.6 522.8 60.5Q523.1 60.3 523.3 60.1Q523.5 59.8 523.5 59.5L523.5 59.5Q523.5 59.2 523.3 59.0Q523.2 58.8 522.8 58.7Q522.5 58.5 522.0 58.4L522.0 58.4L521.0 58.2Q519.9 57.9 519.3 57.3Q518.7 56.7 518.7 55.8L518.7 55.8Q518.7 55.0 519.1 54.4Q519.5 53.8 520.3 53.5Q521.0 53.2 522.0 53.2L522.0 53.2Q522.9 53.2 523.6 53.5Q524.4 53.8 524.8 54.4Q525.2 55.0 525.2 55.8L525.2 55.8L523.5 55.8Q523.4 55.2 523.0 54.9Q522.6 54.7 521.9 54.7L521.9 54.7Q521.5 54.7 521.2 54.8Q520.8 54.9 520.7 55.1Q520.5 55.4 520.5 55.7L520.5 55.7Q520.5 56.0 520.7 56.2Q520.9 56.4 521.2 56.5Q521.5 56.7 521.9 56.8L521.9 56.8L522.7 57.0Q523.3 57.1 523.7 57.3Q524.2 57.5 524.6 57.8Q524.9 58.1 525.1 58.5Q525.3 59.0 525.3 59.5L525.3 59.5Q525.3 60.3 524.9 60.9Q524.5 61.5 523.8 61.8Q523.0 62.1 521.9 62.1ZM529.5 62.1L529.5 62.1Q528.5 62.1 527.8 61.7Q527.1 61.3 526.7 60.5Q526.3 59.8 526.3 58.8L526.3 58.8Q526.3 57.7 526.7 57.0Q527.1 56.2 527.8 55.8Q528.5 55.4 529.5 55.4L529.5 55.4Q530.1 55.4 530.6 55.5Q531.0 55.7 531.4 56.0Q531.8 56.2 532.1 56.6Q532.3 57.0 532.4 57.5L532.4 57.5L530.8 57.9Q530.7 57.6 530.6 57.4Q530.5 57.2 530.3 57.0Q530.2 56.9 530.0 56.8Q529.8 56.8 529.5 56.8L529.5 56.8Q529.0 56.8 528.7 57.0Q528.4 57.3 528.2 57.7Q528.1 58.2 528.1 58.7L528.1 58.7Q528.1 59.3 528.2 59.8Q528.4 60.2 528.7 60.5Q529.0 60.7 529.5 60.7L529.5 60.7Q529.8 60.7 530.0 60.7Q530.2 60.6 530.3 60.4Q530.5 60.3 530.6 60.1Q530.7 59.9 530.8 59.6L530.8 59.6L532.4 59.9Q532.3 60.4 532.1 60.8Q531.8 61.2 531.4 61.5Q531.1 61.8 530.6 62.0Q530.1 62.1 529.5 62.1ZM535.4 62L533.6 62L533.6 55.4L535.3 55.4L535.3 56.6L535.4 56.6Q535.6 56.0 536.0 55.7Q536.4 55.4 537.0 55.4L537.0 55.4Q537.1 55.4 537.3 55.4Q537.4 55.4 537.5 55.4L537.5 55.4L537.5 57.0Q537.4 56.9 537.2 56.9Q537.0 56.9 536.8 56.9L536.8 56.9Q536.4 56.9 536.1 57.1Q535.7 57.2 535.6 57.6Q535.4 57.9 535.4 58.3L535.4 58.3L535.4 62ZM540.3 62L538.5 62L538.5 55.4L540.3 55.4L540.3 62ZM539.4 54.6L539.4 54.6Q539.0 54.6 538.7 54.3Q538.4 54.1 538.4 53.7L538.4 53.7Q538.4 53.3 538.7 53.1Q539.0 52.8 539.4 52.8L539.4 52.8Q539.8 52.8 540.1 53.0Q540.3 53.3 540.3 53.7L540.3 53.7Q540.3 54.1 540.1 54.3Q539.8 54.6 539.4 54.6ZM543.5 64.4L541.8 64.4L541.8 55.4L543.5 55.4L543.5 56.6L543.6 56.6Q543.7 56.3 543.9 56.0Q544.1 55.7 544.5 55.6Q544.9 55.4 545.4 55.4L545.4 55.4Q546.2 55.4 546.8 55.7Q547.4 56.1 547.7 56.9Q548.1 57.6 548.1 58.7L548.1 58.7Q548.1 59.8 547.7 60.6Q547.4 61.3 546.8 61.7Q546.2 62.1 545.4 62.1L545.4 62.1Q544.9 62.1 544.5 61.9Q544.2 61.7 543.9 61.5Q543.7 61.2 543.6 61.0L543.6 61.0L543.5 61.0L543.5 64.4ZM544.9 60.7L544.9 60.7Q545.3 60.7 545.7 60.4Q546.0 60.2 546.1 59.8Q546.3 59.3 546.3 58.7L546.3 58.7Q546.3 58.2 546.1 57.7Q546.0 57.3 545.7 57.0Q545.3 56.8 544.9 56.8L544.9 56.8Q544.4 56.8 544.1 57.0Q543.8 57.3 543.6 57.7Q543.5 58.1 543.5 58.7L543.5 58.7Q543.5 59.3 543.6 59.8Q543.8 60.2 544.1 60.5Q544.4 60.7 544.9 60.7ZM551.3 55.4L552.6 55.4L552.6 56.8L551.3 56.8L551.3 60.1Q551.3 60.4 551.5 60.5Q551.6 60.7 551.9 60.7L551.9 60.7Q552.0 60.7 552.2 60.7Q552.4 60.6 552.5 60.6L552.5 60.6L552.8 61.9Q552.5 62.0 552.2 62.1Q551.9 62.1 551.6 62.1L551.6 62.1Q550.6 62.1 550.1 61.6Q549.6 61.1 549.6 60.2L549.6 60.2L549.6 56.8L548.7 56.8L548.7 55.4L549.6 55.4L549.6 53.9L551.3 53.9L551.3 55.4Z "/></g><mask id="satori_om-id-2-1"><rect x="33" y="84" width="794" height="25" fill="#fff" mask="url(#satori_om-id)"/></mask><mask id="satori_om-id-2-1-0"><rect x="33" y="91" width="80" height="12" fill="#fff" mask="url(#satori_om-id)"/></mask><g mask="url(#satori_om-id)" clip-path="url(#satori_cp-id)"><path fill="#60a5fa" d="M35.1 101L33.7 101L33.7 93.7L38.4 93.7L38.4 95.0L35.1 95.0L35.1 97.0L38.1 97.0L38.1 98.2L35.1 98.2L35.1 101ZM42.0 101L40.5 101L40.5 93.7L43.4 93.7Q44.2 93.7 44.8 94.0Q45.4 94.3 45.7 94.8Q46.0 95.4 46.0 96.1Q46.0 96.8 45.7 97.3Q45.3 97.9 44.8 98.1L44.8 98.1Q44.7 98.1 44.7 98.2L44.7 98.2L46.2 101L44.6 101L43.2 98.4L42.0 98.4L42.0 101ZM42.0 95.0L42.0 97.2L43.1 97.2Q43.6 97.2 43.8 97.1Q44.1 96.9 44.3 96.7Q44.4 96.5 44.4 96.1L44.4 96.1Q44.4 95.7 44.3 95.5Q44.1 95.2 43.8 95.1Q43.5 95.0 43.1 95.0L43.1 95.0L42.0 95.0ZM49.3 101L47.7 101L50.2 93.7L52.1 93.7L54.7 101L53.0 101L52.4 99.3L49.9 99.3L49.3 101ZM50.2 98.1L52.1 98.1L51.8 97.5Q51.6 96.8 51.4 96L51.4 96Q51.3 95.5 51.1 94.9L51.1 94.9Q51.0 95.5 50.8 96.0L50.8 96.0Q50.6 96.8 50.4 97.5L50.4 97.5L50.2 98.1ZM58.0 101L56.6 101L56.6 93.7L58.8 93.7L60.0 97.1Q60.1 97.3 60.2 97.7Q60.3 98.0 60.4 98.5L60.4 98.5Q60.5 98.9 60.6 99.3L60.6 99.3Q60.7 98.9 60.7 98.5L60.7 98.5Q60.8 98.1 60.9 97.7Q61.0 97.3 61.1 97.1L61.1 97.1L62.3 93.7L64.6 93.7L64.6 101L63.1 101L63.1 97.6Q63.1 97.3 63.1 97.0Q63.1 96.6 63.1 96.2Q63.1 95.8 63.1 95.4L63.1 95.4Q63.1 95.2 63.1 95.0L63.1 95.0Q63.1 95.2 63.0 95.4L63.0 95.4Q62.9 95.9 62.8 96.3Q62.7 96.7 62.6 97.0Q62.5 97.3 62.4 97.6L62.4 97.6L61.2 101L59.9 101L58.7 97.6Q58.6 97.3 58.5 97.0Q58.4 96.7 58.3 96.3Q58.2 95.9 58.1 95.4L58.1 95.4Q58.0 95.2 58.0 95.1L58.0 95.1Q58.0 95.2 58.0 95.4L58.0 95.4Q58.0 95.8 58.0 96.2Q58.0 96.6 58.0 97.0Q58.0 97.3 58.0 97.6L58.0 97.6L58.0 101ZM71.8 101L66.9 101L66.9 93.7L71.7 93.7L71.7 95.0L68.4 95.0L68.4 96.7L71.5 96.7L71.5 97.9L68.4 97.9L68.4 99.8L71.8 99.8L71.8 101ZM77.2 101L75.5 101L73.5 93.7L75.2 93.7L76.0 97.3Q76.1 97.8 76.2 98.3Q76.3 98.8 76.4 99.3L76.4 99.3Q76.4 99.4 76.4 99.5L76.4 99.5Q76.4 99.4 76.4 99.3L76.4 99.3Q76.5 98.8 76.6 98.3Q76.7 97.8 76.8 97.3L76.8 97.3L77.7 93.7L79.3 93.7L80.1 97.3Q80.3 97.8 80.3 98.3Q80.4 98.8 80.5 99.3L80.5 99.3Q80.5 99.4 80.6 99.5L80.6 99.5Q80.6 99.4 80.6 99.3L80.6 99.3Q80.7 98.8 80.8 98.3Q80.9 97.8 81.0 97.3L81.0 97.3L81.8 93.7L83.4 93.7L81.5 101L79.8 101L78.8 97.3Q78.6 96.7 78.5 95.9L78.5 95.9Q78.5 95.7 78.5 95.5L78.5 95.5Q78.4 95.7 78.4 95.9L78.4 95.9Q78.3 96.6 78.2 97.3L78.2 97.3L77.2 101ZM88.5 101.1L88.5 101.1Q87.6 101.1 86.8 100.7Q86.0 100.2 85.6 99.4Q85.1 98.5 85.1 97.4L85.1 97.4Q85.1 96.2 85.6 95.3Q86.0 94.5 86.8 94.1Q87.6 93.6 88.5 93.6L88.5 93.6Q89.5 93.6 90.3 94.1Q91.0 94.5 91.5 95.3Q91.9 96.2 91.9 97.4L91.9 97.4Q91.9 98.5 91.5 99.4Q91.0 100.2 90.3 100.7Q89.5 101.1 88.5 101.1ZM88.5 99.8L88.5 99.8Q89.1 99.8 89.5 99.5Q89.9 99.2 90.2 98.7Q90.4 98.1 90.4 97.4L90.4 97.4Q90.4 96.6 90.2 96.0Q89.9 95.5 89.5 95.2Q89.1 95.0 88.5 95.0L88.5 95.0Q88.0 95.0 87.5 95.2Q87.1 95.5 86.9 96.0Q86.6 96.6 86.6 97.4L86.6 97.4Q86.6 98.1 86.9 98.7Q87.1 99.2 87.5 99.5Q88.0 99.8 88.5 99.8ZM95.5 101L94.0 101L94.0 93.7L96.9 93.7Q97.7 93.7 98.3 94.0Q98.9 94.3 99.2 94.8Q99.5 95.4 99.5 96.1Q99.5 96.8 99.2 97.3Q98.9 97.9 98.3 98.1L98.3 98.1Q98.2 98.1 98.2 98.2L98.2 98.2L99.7 101L98.1 101L96.7 98.4L95.5 98.4L95.5 101ZM95.5 95.0L95.5 97.2L96.6 97.2Q97.1 97.2 97.3 97.1Q97.6 96.9 97.8 96.7Q97.9 96.5 97.9 96.1L97.9 96.1Q97.9 95.7 97.8 95.5Q97.6 95.2 97.3 95.1Q97.1 95.0 96.6 95.0L96.6 95.0L95.5 95.0ZM103.1 101L101.6 101L101.6 93.7L103.1 93.7L103.1 95.7L103.1 97.4Q103.1 97.3 103.1 97.3L103.1 97.3Q103.4 96.9 103.6 96.6Q103.9 96.2 104.2 95.8L104.2 95.8L106.0 93.7L107.8 93.7L105.1 96.9L107.9 101L106.1 101L104.1 97.9L103.1 98.9L103.1 101ZM112.5 101.1L112.5 101.1Q111.6 101.1 110.9 100.8Q110.3 100.6 109.9 100.0Q109.6 99.5 109.5 98.7L109.5 98.7L111.0 98.7Q111.0 99.1 111.2 99.4Q111.4 99.6 111.7 99.7Q112.0 99.8 112.4 99.8L112.4 99.8Q112.8 99.8 113.1 99.7Q113.4 99.6 113.6 99.4Q113.8 99.2 113.8 98.9L113.8 98.9Q113.8 98.7 113.6 98.5Q113.5 98.3 113.2 98.2Q112.9 98.1 112.5 98.0L112.5 98.0L111.7 97.8Q110.8 97.6 110.3 97.1Q109.7 96.6 109.7 95.8L109.7 95.8Q109.7 95.2 110.1 94.7Q110.5 94.2 111.1 93.9Q111.7 93.6 112.5 93.6L112.5 93.6Q113.3 93.6 113.9 93.9Q114.5 94.2 114.8 94.7Q115.2 95.2 115.2 95.8L115.2 95.8L113.7 95.8Q113.7 95.4 113.4 95.1Q113.0 94.9 112.5 94.9L112.5 94.9Q112.1 94.9 111.8 95.0Q111.6 95.1 111.4 95.3Q111.3 95.5 111.3 95.7L111.3 95.7Q111.3 96.0 111.4 96.2Q111.6 96.3 111.9 96.5Q112.1 96.6 112.4 96.6L112.4 96.6L113.1 96.8Q113.6 96.9 113.9 97.1Q114.3 97.3 114.6 97.5Q114.9 97.8 115.1 98.1Q115.3 98.5 115.3 98.9L115.3 98.9Q115.3 99.6 114.9 100.1Q114.6 100.6 114.0 100.8Q113.3 101.1 112.5 101.1Z "/></g><mask id="satori_om-id-2-1-1"><rect x="129" y="84" width="615" height="25" fill="#fff" mask="url(#satori_om-id)"/></mask><defs><clipPath id="satori_bc-id-2-1-1-0" clip-path="url(#satori_cp-id)"><path x="129" y="84" width="96" height="25" d="M135,84 h84 a6,6 0 0 1 6,6 v13 a6,6 0 0 1 -6,6 h-84 a6,6 0 0 1 -6,-6 v-13 a6,6 0 0 1 6,-6"/></clipPath></defs><mask id="satori_om-id-2-1-1-0"><rect x="130" y="85" width="94" height="23" fill="#fff" mask="url(#satori_om-id)"/><path width="96" height="25" fill="none" stroke="#000" stroke-width="2" d="M130.757,85.757 A6,6 0 0 1 135,84 h84 a6,6 0 0 1 6,6 v13 a6,6 0 0 1 -6,6 h-84 a6,6 0 0 1 -6,-6 v-13 A6,6 0 0 1 130.757,85.757"/></mask><path x="129" y="84" width="96" height="25" fill="#60a5fa15" d="M135,84 h84 a6,6 0 0 1 6,6 v13 a6,6 0 0 1 -6,6 h-84 a6,6 0 0 1 -6,-6 v-13 a6,6 0 0 1 6,-6" clip-path="url(#satori_cp-id)" mask="url(#satori_om-id)"/><path width="96" height="25" clip-path="url(#satori_bc-id-2-1-1-0)" fill="none" stroke="#60a5fa35" stroke-width="2" d="M130.757,85.757 A6,6 0 0 1 135,84 h84 a6,6 0 0 1 6,6 v13 a6,6 0 0 1 -6,6 h-84 a6,6 0 0 1 -6,-6 v-13 A6,6 0 0 1 130.757,85.757"/><g mask="url(#satori_om-id)" clip-path="url(#satori_cp-id)"><path fill="rgba(225,220,255,0.85)" d="M146.1 93.8L143.4 93.8L143.4 92.3L150.6 92.3L150.6 93.8L147.9 93.8L147.9 101L146.1 101L146.1 93.8ZM154.7 101.1L154.7 101.1Q153.7 101.1 153.0 100.7Q152.3 100.3 151.9 99.6Q151.5 98.8 151.5 97.8L151.5 97.8Q151.5 96.7 151.9 96.0Q152.3 95.2 153.0 94.8Q153.7 94.4 154.6 94.4L154.6 94.4Q155.3 94.4 155.8 94.6Q156.4 94.8 156.8 95.2Q157.2 95.6 157.5 96.2Q157.7 96.8 157.7 97.7L157.7 97.7L157.7 98.2L153.2 98.2Q153.2 98.7 153.4 99.0L153.4 99.0Q153.6 99.4 153.9 99.6Q154.3 99.8 154.7 99.8L154.7 99.8Q155.1 99.8 155.3 99.7Q155.6 99.6 155.7 99.5Q155.9 99.3 156.0 99.0L156.0 99.0L157.6 99.3Q157.4 99.9 157.1 100.3Q156.7 100.7 156.1 100.9Q155.5 101.1 154.7 101.1ZM153.2 97.1L153.2 97.1L156.0 97.1Q156.0 96.8 155.9 96.5L155.9 96.5Q155.7 96.1 155.4 95.9Q155.1 95.7 154.6 95.7L154.6 95.7Q154.2 95.7 153.9 95.9Q153.6 96.1 153.4 96.5L153.4 96.5Q153.3 96.7 153.2 97.1ZM160.7 97.2L160.7 97.2L160.7 101L158.9 101L158.9 94.4L160.6 94.4L160.6 95.8Q160.8 95.2 161.3 94.8L161.3 94.8Q161.8 94.4 162.6 94.4L162.6 94.4Q163.3 94.4 163.8 94.7Q164.3 95.0 164.6 95.5Q164.9 96.1 164.9 96.8L164.9 96.8L164.9 101L163.1 101L163.1 97.1Q163.1 96.5 162.8 96.2Q162.5 95.8 161.9 95.8L161.9 95.8Q161.6 95.8 161.3 96.0Q161.0 96.2 160.8 96.5Q160.7 96.8 160.7 97.2ZM169.0 101.1L169.0 101.1Q168.2 101.1 167.6 100.9Q167.0 100.7 166.6 100.2Q166.2 99.8 166.1 99.2L166.1 99.2L167.7 98.9Q167.8 99.4 168.2 99.6Q168.5 99.8 169.0 99.8L169.0 99.8Q169.5 99.8 169.8 99.6Q170.1 99.5 170.1 99.2L170.1 99.2Q170.1 98.9 169.9 98.7Q169.7 98.6 169.3 98.5L169.3 98.5L168.1 98.3Q167.2 98.1 166.7 97.6Q166.3 97.1 166.3 96.4L166.3 96.4Q166.3 95.8 166.6 95.3Q166.9 94.9 167.6 94.6Q168.2 94.4 169.0 94.4L169.0 94.4Q169.8 94.4 170.4 94.6Q170.9 94.8 171.3 95.2Q171.6 95.6 171.7 96.1L171.7 96.1L170.2 96.4Q170.1 96.1 169.8 95.8Q169.5 95.6 169.0 95.6L169.0 95.6Q168.6 95.6 168.3 95.8Q168.0 96.0 168.0 96.3L168.0 96.3Q168.0 96.5 168.2 96.7Q168.4 96.9 168.9 97.0L168.9 97.0L170.0 97.2Q171.0 97.4 171.4 97.8Q171.9 98.3 171.9 99.0L171.9 99.0Q171.9 99.6 171.5 100.1Q171.2 100.6 170.5 100.9Q169.8 101.1 169.0 101.1ZM176.0 101.1L176.0 101.1Q175.0 101.1 174.3 100.7Q173.6 100.3 173.2 99.5Q172.8 98.8 172.8 97.8L172.8 97.8Q172.8 96.7 173.2 96.0Q173.6 95.2 174.3 94.8Q175.0 94.4 176.0 94.4L176.0 94.4Q177.0 94.4 177.7 94.8Q178.5 95.2 178.8 96.0Q179.2 96.7 179.2 97.8L179.2 97.8Q179.2 98.8 178.8 99.5Q178.5 100.3 177.7 100.7Q177.0 101.1 176.0 101.1ZM176.0 99.7L176.0 99.7Q176.5 99.7 176.8 99.5Q177.1 99.2 177.3 98.8Q177.4 98.3 177.4 97.7L177.4 97.7Q177.4 97.2 177.3 96.7Q177.1 96.3 176.8 96.0Q176.5 95.8 176.0 95.8L176.0 95.8Q175.6 95.8 175.2 96.0Q174.9 96.3 174.8 96.7Q174.6 97.2 174.6 97.7L174.6 97.7Q174.6 98.3 174.8 98.8Q174.9 99.2 175.2 99.5Q175.6 99.7 176.0 99.7ZM182.2 101L180.5 101L180.5 94.4L182.2 94.4L182.2 95.6L182.2 95.6Q182.4 95.0 182.8 94.7Q183.3 94.4 183.8 94.4L183.8 94.4Q183.9 94.4 184.1 94.4Q184.3 94.4 184.4 94.4L184.4 94.4L184.4 96.0Q184.3 95.9 184.0 95.9Q183.8 95.9 183.6 95.9L183.6 95.9Q183.2 95.9 182.9 96.1Q182.6 96.2 182.4 96.6Q182.2 96.9 182.2 97.3L182.2 97.3L182.2 101ZM187.6 94.4L189.0 94.4L189.0 95.8L187.6 95.8L187.6 101L185.9 101L185.9 95.8L184.7 95.8L184.7 94.4L185.9 94.4L185.9 93.9Q185.9 93.2 186.1 92.8Q186.4 92.3 186.9 92.1Q187.4 91.9 188.0 91.9L188.0 91.9Q188.4 91.9 188.8 91.9Q189.1 92.0 189.3 92.0L189.3 92.0L188.9 93.4Q188.8 93.3 188.7 93.3Q188.5 93.3 188.4 93.3L188.4 93.3Q188.0 93.3 187.8 93.5Q187.6 93.7 187.6 94.0L187.6 94.0L187.6 94.4ZM190.1 92.3L191.9 92.3L191.9 101L190.1 101L190.1 92.3ZM196.3 101.1L196.3 101.1Q195.3 101.1 194.6 100.7Q193.9 100.3 193.5 99.5Q193.1 98.8 193.1 97.8L193.1 97.8Q193.1 96.7 193.5 96.0Q193.9 95.2 194.6 94.8Q195.3 94.4 196.3 94.4L196.3 94.4Q197.3 94.4 198.0 94.8Q198.7 95.2 199.1 96.0Q199.5 96.7 199.5 97.8L199.5 97.8Q199.5 98.8 199.1 99.5Q198.7 100.3 198.0 100.7Q197.3 101.1 196.3 101.1ZM196.3 99.7L196.3 99.7Q196.8 99.7 197.1 99.5Q197.4 99.2 197.6 98.8Q197.7 98.3 197.7 97.7L197.7 97.7Q197.7 97.2 197.6 96.7Q197.4 96.3 197.1 96.0Q196.8 95.8 196.3 95.8L196.3 95.8Q195.8 95.8 195.5 96.0Q195.2 96.3 195.0 96.7Q194.9 97.2 194.9 97.7L194.9 97.7Q194.9 98.3 195.0 98.8Q195.2 99.2 195.5 99.5Q195.8 99.7 196.3 99.7ZM203.9 101L202.1 101L200.2 94.4L202.0 94.4L202.6 96.9Q202.7 97.5 202.9 98.3L202.9 98.3Q203.0 98.8 203.1 99.4L203.1 99.4Q203.2 98.8 203.3 98.3L203.3 98.3Q203.5 97.5 203.7 96.9L203.7 96.9L204.3 94.4L205.9 94.4L206.5 96.9Q206.6 97.5 206.8 98.3L206.8 98.3Q206.9 98.8 207.0 99.4L207.0 99.4Q207.1 98.8 207.3 98.3L207.3 98.3Q207.4 97.5 207.6 96.9L207.6 96.9L208.1 94.4L210.0 94.4L208.1 101L206.3 101L205.5 98.5Q205.4 98.1 205.3 97.6Q205.2 97.2 205.1 96.7L205.1 96.7Q205.1 96.6 205.1 96.5L205.1 96.5Q205.1 96.6 205.0 96.7L205.0 96.7Q204.9 97.2 204.8 97.6Q204.7 98.1 204.6 98.5L204.6 98.5L203.9 101Z "/></g><defs><clipPath id="satori_bc-id-2-1-1-1" clip-path="url(#satori_cp-id)"><path x="232" y="84" width="97" height="25" d="M238,84 h85 a6,6 0 0 1 6,6 v13 a6,6 0 0 1 -6,6 h-85 a6,6 0 0 1 -6,-6 v-13 a6,6 0 0 1 6,-6"/></clipPath></defs><mask id="satori_om-id-2-1-1-1"><rect x="233" y="85" width="95" height="23" fill="#fff" mask="url(#satori_om-id)"/><path width="97" height="25" fill="none" stroke="#000" stroke-width="2" d="M233.757,85.757 A6,6 0 0 1 238,84 h85 a6,6 0 0 1 6,6 v13 a6,6 0 0 1 -6,6 h-85 a6,6 0 0 1 -6,-6 v-13 A6,6 0 0 1 233.757,85.757"/></mask><path x="232" y="84" width="97" height="25" fill="#60a5fa15" d="M238,84 h85 a6,6 0 0 1 6,6 v13 a6,6 0 0 1 -6,6 h-85 a6,6 0 0 1 -6,-6 v-13 a6,6 0 0 1 6,-6" clip-path="url(#satori_cp-id)" mask="url(#satori_om-id)"/><path width="97" height="25" clip-path="url(#satori_bc-id-2-1-1-1)" fill="none" stroke="#60a5fa35" stroke-width="2" d="M233.757,85.757 A6,6 0 0 1 238,84 h85 a6,6 0 0 1 6,6 v13 a6,6 0 0 1 -6,6 h-85 a6,6 0 0 1 -6,-6 v-13 A6,6 0 0 1 233.757,85.757"/><g mask="url(#satori_om-id)" clip-path="url(#satori_cp-id)"><path fill="rgba(225,220,255,0.85)" d="M250.0 101.1L250.0 101.1Q248.9 101.1 248.2 100.8Q247.4 100.5 247.0 99.9Q246.5 99.2 246.5 98.3L246.5 98.3L248.2 98.3Q248.3 98.7 248.5 99.0Q248.7 99.3 249.1 99.5Q249.5 99.6 250.0 99.6L250.0 99.6Q250.5 99.6 250.8 99.5Q251.2 99.3 251.4 99.1Q251.6 98.8 251.6 98.5L251.6 98.5Q251.6 98.2 251.4 98.0Q251.2 97.8 250.9 97.7Q250.5 97.5 250.1 97.4L250.1 97.4L249.1 97.2Q248.0 96.9 247.4 96.3Q246.7 95.7 246.7 94.8L246.7 94.8Q246.7 94.0 247.2 93.4Q247.6 92.8 248.3 92.5Q249.1 92.2 250.0 92.2L250.0 92.2Q251.0 92.2 251.7 92.5Q252.4 92.8 252.8 93.4Q253.2 94.0 253.2 94.8L253.2 94.8L251.5 94.8Q251.5 94.2 251.1 93.9Q250.7 93.7 250.0 93.7L250.0 93.7Q249.5 93.7 249.2 93.8Q248.9 93.9 248.7 94.1Q248.6 94.4 248.6 94.7L248.6 94.7Q248.6 95.0 248.8 95.2Q249.0 95.4 249.3 95.5Q249.6 95.7 250.0 95.8L250.0 95.8L250.8 96.0Q251.3 96.1 251.8 96.3Q252.3 96.5 252.6 96.8Q253.0 97.1 253.2 97.5Q253.4 98.0 253.4 98.5L253.4 98.5Q253.4 99.3 253.0 99.9Q252.6 100.5 251.8 100.8Q251.1 101.1 250.0 101.1ZM257.5 101.1L257.5 101.1Q256.5 101.1 255.8 100.7Q255.1 100.3 254.7 99.5Q254.3 98.8 254.3 97.8L254.3 97.8Q254.3 96.7 254.7 96.0Q255.1 95.2 255.8 94.8Q256.5 94.4 257.5 94.4L257.5 94.4Q258.1 94.4 258.6 94.5Q259.1 94.7 259.5 95.0Q259.9 95.2 260.1 95.6Q260.4 96.0 260.4 96.5L260.4 96.5L258.8 96.9Q258.8 96.6 258.7 96.4Q258.5 96.2 258.4 96.0Q258.2 95.9 258.0 95.8Q257.8 95.8 257.6 95.8L257.6 95.8Q257.1 95.8 256.8 96.0Q256.4 96.3 256.3 96.7Q256.1 97.2 256.1 97.7L256.1 97.7Q256.1 98.3 256.3 98.8Q256.4 99.2 256.8 99.5Q257.1 99.7 257.6 99.7L257.6 99.7Q257.8 99.7 258.0 99.7Q258.2 99.6 258.4 99.4Q258.6 99.3 258.7 99.1Q258.8 98.9 258.8 98.6L258.8 98.6L260.5 98.9Q260.4 99.4 260.1 99.8Q259.9 100.2 259.5 100.5Q259.1 100.8 258.6 101.0Q258.1 101.1 257.5 101.1ZM263.4 101L261.7 101L261.7 94.4L263.4 94.4L263.4 101ZM262.5 93.6L262.5 93.6Q262.1 93.6 261.9 93.3Q261.6 93.1 261.6 92.7L261.6 92.7Q261.6 92.3 261.9 92.1Q262.1 91.8 262.5 91.8L262.5 91.8Q262.9 91.8 263.2 92.0Q263.5 92.3 263.5 92.7L263.5 92.7Q263.5 93.1 263.2 93.3Q262.9 93.6 262.5 93.6ZM266.7 101L264.9 101L264.9 92.3L266.7 92.3L266.7 97.0L266.8 97.0L268.9 94.4L271.0 94.4L268.5 97.3L271.1 101L269.0 101L267.2 98.3L266.7 98.9L266.7 101ZM273.6 101L271.9 101L271.9 94.4L273.6 94.4L273.6 101ZM272.8 93.6L272.8 93.6Q272.4 93.6 272.1 93.3Q271.8 93.1 271.8 92.7L271.8 92.7Q271.8 92.3 272.1 92.1Q272.4 91.8 272.8 91.8L272.8 91.8Q273.2 91.8 273.4 92.0Q273.7 92.3 273.7 92.7L273.7 92.7Q273.7 93.1 273.4 93.3Q273.2 93.6 272.8 93.6ZM277.2 94.4L278.4 94.4L278.4 95.8L277.2 95.8L277.2 99.1Q277.2 99.4 277.3 99.5Q277.4 99.7 277.8 99.7L277.8 99.7Q277.9 99.7 278.0 99.7Q278.2 99.6 278.3 99.6L278.3 99.6L278.6 100.9Q278.3 101.0 278.0 101.1Q277.7 101.1 277.4 101.1L277.4 101.1Q276.4 101.1 275.9 100.6Q275.4 100.1 275.4 99.2L275.4 99.2L275.4 95.8L274.5 95.8L274.5 94.4L275.4 94.4L275.4 92.9L277.2 92.9L277.2 94.4ZM279.6 96.7L283.6 96.7L283.6 98.1L279.6 98.1L279.6 96.7ZM285.1 92.3L286.9 92.3L286.9 101L285.1 101L285.1 92.3ZM291.4 101.1L291.4 101.1Q290.3 101.1 289.6 100.7Q288.9 100.3 288.5 99.6Q288.1 98.8 288.1 97.8L288.1 97.8Q288.1 96.7 288.5 96.0Q288.9 95.2 289.6 94.8Q290.3 94.4 291.3 94.4L291.3 94.4Q291.9 94.4 292.5 94.6Q293.0 94.8 293.4 95.2Q293.9 95.6 294.1 96.2Q294.3 96.8 294.3 97.7L294.3 97.7L294.3 98.2L289.9 98.2Q289.9 98.7 290.1 99.0L290.1 99.0Q290.2 99.4 290.6 99.6Q290.9 99.8 291.4 99.8L291.4 99.8Q291.7 99.8 291.9 99.7Q292.2 99.6 292.4 99.5Q292.6 99.3 292.6 99.0L292.6 99.0L294.2 99.3Q294.1 99.9 293.7 100.3Q293.3 100.7 292.7 100.9Q292.1 101.1 291.4 101.1ZM289.9 97.1L289.9 97.1L292.6 97.1Q292.6 96.8 292.5 96.5L292.5 96.5Q292.3 96.1 292.0 95.9Q291.7 95.7 291.3 95.7L291.3 95.7Q290.8 95.7 290.5 95.9Q290.2 96.1 290.0 96.5L290.0 96.5Q289.9 96.7 289.9 97.1ZM297.4 101.1L297.4 101.1Q296.7 101.1 296.3 100.9Q295.8 100.7 295.5 100.3Q295.2 99.8 295.2 99.2L295.2 99.2Q295.2 98.6 295.4 98.3Q295.6 97.9 295.9 97.7Q296.3 97.4 296.7 97.3Q297.2 97.2 297.7 97.2L297.7 97.2Q298.2 97.1 298.6 97.0Q298.9 97.0 299.1 96.9Q299.3 96.8 299.3 96.6L299.3 96.6L299.3 96.5Q299.3 96.3 299.1 96.1Q299.0 95.9 298.8 95.8Q298.6 95.7 298.2 95.7L298.2 95.7Q297.9 95.7 297.6 95.8Q297.4 95.9 297.2 96.0Q297.1 96.2 297.0 96.4L297.0 96.4L295.4 96.2Q295.5 95.6 295.9 95.2Q296.3 94.8 296.9 94.6Q297.5 94.4 298.2 94.4L298.2 94.4Q298.8 94.4 299.3 94.5Q299.8 94.6 300.1 94.9Q300.5 95.1 300.8 95.6Q301.0 96.0 301.0 96.6L301.0 96.6L301.0 101L299.3 101L299.3 100.1L299.3 100.1Q299.1 100.4 298.9 100.6Q298.6 100.9 298.2 101.0Q297.9 101.1 297.4 101.1ZM297.9 99.9L297.9 99.9Q298.3 99.9 298.6 99.7Q298.9 99.6 299.1 99.3Q299.3 99.0 299.3 98.7L299.3 98.7L299.3 97.9Q299.2 98.0 299.0 98.1Q298.9 98.1 298.7 98.1Q298.5 98.2 298.3 98.2Q298.1 98.2 298.0 98.2L298.0 98.2Q297.6 98.3 297.4 98.4Q297.1 98.5 297.0 98.7Q296.9 98.8 296.9 99.1L296.9 99.1Q296.9 99.4 297.0 99.5Q297.1 99.7 297.4 99.8Q297.6 99.9 297.9 99.9ZM304.3 101L302.5 101L302.5 94.4L304.2 94.4L304.2 95.6L304.3 95.6Q304.5 95.0 304.9 94.7Q305.3 94.4 305.9 94.4L305.9 94.4Q306.0 94.4 306.2 94.4Q306.3 94.4 306.4 94.4L306.4 94.4L306.4 96.0Q306.3 95.9 306.1 95.9Q305.9 95.9 305.7 95.9L305.7 95.9Q305.3 95.9 304.9 96.1Q304.6 96.2 304.4 96.6Q304.3 96.9 304.3 97.3L304.3 97.3L304.3 101ZM309.2 97.2L309.2 97.2L309.2 101L307.4 101L307.4 94.4L309.1 94.4L309.1 95.8Q309.3 95.2 309.8 94.8L309.8 94.8Q310.3 94.4 311.1 94.4L311.1 94.4Q311.8 94.4 312.3 94.7Q312.8 95.0 313.1 95.5Q313.4 96.1 313.4 96.8L313.4 96.8L313.4 101L311.6 101L311.6 97.1Q311.6 96.5 311.3 96.2Q311.0 95.8 310.4 95.8L310.4 95.8Q310.1 95.8 309.8 96.0Q309.5 96.2 309.3 96.5Q309.2 96.8 309.2 97.2Z "/></g><defs><clipPath id="satori_bc-id-2-1-1-2" clip-path="url(#satori_cp-id)"><path x="336" y="84" width="74" height="25" d="M342,84 h62 a6,6 0 0 1 6,6 v13 a6,6 0 0 1 -6,6 h-62 a6,6 0 0 1 -6,-6 v-13 a6,6 0 0 1 6,-6"/></clipPath></defs><mask id="satori_om-id-2-1-1-2"><rect x="337" y="85" width="72" height="23" fill="#fff" mask="url(#satori_om-id)"/><path width="74" height="25" fill="none" stroke="#000" stroke-width="2" d="M337.757,85.757 A6,6 0 0 1 342,84 h62 a6,6 0 0 1 6,6 v13 a6,6 0 0 1 -6,6 h-62 a6,6 0 0 1 -6,-6 v-13 A6,6 0 0 1 337.757,85.757"/></mask><path x="336" y="84" width="74" height="25" fill="#60a5fa15" d="M342,84 h62 a6,6 0 0 1 6,6 v13 a6,6 0 0 1 -6,6 h-62 a6,6 0 0 1 -6,-6 v-13 a6,6 0 0 1 6,-6" clip-path="url(#satori_cp-id)" mask="url(#satori_om-id)"/><path width="74" height="25" clip-path="url(#satori_bc-id-2-1-1-2)" fill="none" stroke="#60a5fa35" stroke-width="2" d="M337.757,85.757 A6,6 0 0 1 342,84 h62 a6,6 0 0 1 6,6 v13 a6,6 0 0 1 -6,6 h-62 a6,6 0 0 1 -6,-6 v-13 A6,6 0 0 1 337.757,85.757"/><g mask="url(#satori_om-id)" clip-path="url(#satori_cp-id)"><path fill="rgba(225,220,255,0.85)" d="M352.6 101L350.8 101L350.8 92.3L356.5 92.3L356.5 93.8L352.6 93.8L352.6 96.2L356.1 96.2L356.1 97.6L352.6 97.6L352.6 101ZM359.6 101.1L359.6 101.1Q359 101.1 358.5 100.9Q358.0 100.7 357.7 100.3Q357.4 99.8 357.4 99.2L357.4 99.2Q357.4 98.6 357.6 98.3Q357.8 97.9 358.2 97.7Q358.5 97.4 359.0 97.3Q359.4 97.2 359.9 97.2L359.9 97.2Q360.5 97.1 360.8 97.0Q361.2 97.0 361.3 96.9Q361.5 96.8 361.5 96.6L361.5 96.6L361.5 96.5Q361.5 96.3 361.4 96.1Q361.3 95.9 361.0 95.8Q360.8 95.7 360.5 95.7L360.5 95.7Q360.1 95.7 359.9 95.8Q359.6 95.9 359.5 96.0Q359.3 96.2 359.2 96.4L359.2 96.4L357.6 96.2Q357.8 95.6 358.2 95.2Q358.6 94.8 359.2 94.6Q359.8 94.4 360.5 94.4L360.5 94.4Q361.0 94.4 361.5 94.5Q362.0 94.6 362.4 94.9Q362.8 95.1 363.0 95.6Q363.3 96.0 363.3 96.6L363.3 96.6L363.3 101L361.6 101L361.6 100.1L361.5 100.1Q361.4 100.4 361.1 100.6Q360.9 100.9 360.5 101.0Q360.1 101.1 359.6 101.1ZM360.1 99.9L360.1 99.9Q360.5 99.9 360.8 99.7Q361.2 99.6 361.3 99.3Q361.5 99.0 361.5 98.7L361.5 98.7L361.5 97.9Q361.4 98.0 361.3 98.1Q361.1 98.1 360.9 98.1Q360.7 98.2 360.5 98.2Q360.4 98.2 360.2 98.2L360.2 98.2Q359.9 98.3 359.6 98.4Q359.4 98.5 359.3 98.7Q359.1 98.8 359.1 99.1L359.1 99.1Q359.1 99.4 359.3 99.5Q359.4 99.7 359.6 99.8Q359.8 99.9 360.1 99.9ZM367.4 101.1L367.4 101.1Q366.6 101.1 366.0 100.9Q365.4 100.7 365.0 100.2Q364.6 99.8 364.5 99.2L364.5 99.2L366.1 98.9Q366.2 99.4 366.6 99.6Q366.9 99.8 367.4 99.8L367.4 99.8Q367.9 99.8 368.2 99.6Q368.5 99.5 368.5 99.2L368.5 99.2Q368.5 98.9 368.3 98.7Q368.1 98.6 367.7 98.5L367.7 98.5L366.5 98.3Q365.6 98.1 365.1 97.6Q364.6 97.1 364.6 96.4L364.6 96.4Q364.6 95.8 365.0 95.3Q365.3 94.9 365.9 94.6Q366.6 94.4 367.4 94.4L367.4 94.4Q368.2 94.4 368.7 94.6Q369.3 94.8 369.7 95.2Q370.0 95.6 370.1 96.1L370.1 96.1L368.6 96.4Q368.5 96.1 368.2 95.8Q367.9 95.6 367.4 95.6L367.4 95.6Q367.0 95.6 366.7 95.8Q366.4 96.0 366.4 96.3L366.4 96.3Q366.4 96.5 366.6 96.7Q366.8 96.9 367.2 97.0L367.2 97.0L368.4 97.2Q369.4 97.4 369.8 97.8Q370.3 98.3 370.3 99.0L370.3 99.0Q370.3 99.6 369.9 100.1Q369.5 100.6 368.9 100.9Q368.2 101.1 367.4 101.1ZM373.5 94.4L374.7 94.4L374.7 95.8L373.5 95.8L373.5 99.1Q373.5 99.4 373.6 99.5Q373.8 99.7 374.1 99.7L374.1 99.7Q374.2 99.7 374.4 99.7Q374.6 99.6 374.7 99.6L374.7 99.6L374.9 100.9Q374.6 101.0 374.3 101.1Q374.0 101.1 373.8 101.1L373.8 101.1Q372.8 101.1 372.3 100.6Q371.8 100.1 371.8 99.2L371.8 99.2L371.8 95.8L370.8 95.8L370.8 94.4L371.8 94.4L371.8 92.9L373.5 92.9L373.5 94.4ZM377.4 101L375.4 101L378.4 92.3L380.7 92.3L383.8 101L381.8 101L381.1 99.0L378.0 99.0L377.4 101ZM378.5 97.6L380.7 97.6L380.4 96.8Q380.2 96.0 379.9 95L379.9 95Q379.7 94.4 379.5 93.7L379.5 93.7Q379.4 94.4 379.2 95.0L379.2 95.0Q379.0 96.0 378.7 96.8L378.7 96.8L378.5 97.6ZM386.7 101L384.9 101L384.9 92.3L388.3 92.3Q389.3 92.3 390.0 92.6Q390.7 93.0 391.0 93.7Q391.4 94.4 391.4 95.2L391.4 95.2Q391.4 96.1 391.0 96.7Q390.7 97.4 390.0 97.8Q389.2 98.1 388.2 98.1L388.2 98.1L386.7 98.1L386.7 101ZM386.7 93.7L386.7 96.7L388.0 96.7Q388.5 96.7 388.9 96.5Q389.2 96.3 389.4 96.0Q389.6 95.7 389.6 95.2Q389.6 94.8 389.4 94.4Q389.2 94.1 388.9 93.9Q388.5 93.7 387.9 93.7L387.9 93.7L386.7 93.7ZM392.7 92.3L394.4 92.3L394.4 101L392.7 101L392.7 92.3Z "/></g><defs><clipPath id="satori_bc-id-2-1-1-3" clip-path="url(#satori_cp-id)"><path x="417" y="84" width="78" height="25" d="M423,84 h66 a6,6 0 0 1 6,6 v13 a6,6 0 0 1 -6,6 h-66 a6,6 0 0 1 -6,-6 v-13 a6,6 0 0 1 6,-6"/></clipPath></defs><mask id="satori_om-id-2-1-1-3"><rect x="418" y="85" width="76" height="23" fill="#fff" mask="url(#satori_om-id)"/><path width="78" height="25" fill="none" stroke="#000" stroke-width="2" d="M418.757,85.757 A6,6 0 0 1 423,84 h66 a6,6 0 0 1 6,6 v13 a6,6 0 0 1 -6,6 h-66 a6,6 0 0 1 -6,-6 v-13 A6,6 0 0 1 418.757,85.757"/></mask><path x="417" y="84" width="78" height="25" fill="#60a5fa15" d="M423,84 h66 a6,6 0 0 1 6,6 v13 a6,6 0 0 1 -6,6 h-66 a6,6 0 0 1 -6,-6 v-13 a6,6 0 0 1 6,-6" clip-path="url(#satori_cp-id)" mask="url(#satori_om-id)"/><path width="78" height="25" clip-path="url(#satori_bc-id-2-1-1-3)" fill="none" stroke="#60a5fa35" stroke-width="2" d="M418.757,85.757 A6,6 0 0 1 423,84 h66 a6,6 0 0 1 6,6 v13 a6,6 0 0 1 -6,6 h-66 a6,6 0 0 1 -6,-6 v-13 A6,6 0 0 1 418.757,85.757"/><g mask="url(#satori_om-id)" clip-path="url(#satori_cp-id)"><path fill="rgba(225,220,255,0.85)" d="M435.6 101.1L435.6 101.1Q434.5 101.1 433.5 100.6Q432.6 100.1 432.1 99.1Q431.6 98.1 431.6 96.6L431.6 96.6Q431.6 95.2 432.1 94.2Q432.6 93.2 433.5 92.7Q434.5 92.2 435.6 92.2L435.6 92.2Q436.8 92.2 437.7 92.7Q438.6 93.2 439.2 94.2Q439.7 95.2 439.7 96.6L439.7 96.6Q439.7 98.1 439.2 99.1Q438.6 100.1 437.7 100.6Q436.8 101.1 435.6 101.1ZM435.6 99.5L435.6 99.5Q436.3 99.5 436.8 99.2Q437.3 98.9 437.6 98.2Q437.9 97.6 437.9 96.6L437.9 96.6Q437.9 95.7 437.6 95.0Q437.3 94.4 436.8 94.1Q436.3 93.7 435.6 93.7L435.6 93.7Q434.9 93.7 434.4 94.1Q433.9 94.4 433.6 95.1Q433.4 95.7 433.4 96.6L433.4 96.6Q433.4 97.6 433.6 98.2Q433.9 98.9 434.4 99.2Q434.9 99.5 435.6 99.5ZM442.8 103.4L441.0 103.4L441.0 94.4L442.7 94.4L442.7 95.6L442.8 95.6Q442.9 95.3 443.2 95.0Q443.4 94.7 443.8 94.6Q444.1 94.4 444.7 94.4L444.7 94.4Q445.4 94.4 446.0 94.7Q446.6 95.1 447.0 95.9Q447.3 96.6 447.3 97.7L447.3 97.7Q447.3 98.8 447.0 99.6Q446.6 100.3 446.0 100.7Q445.4 101.1 444.7 101.1L444.7 101.1Q444.1 101.1 443.8 100.9Q443.4 100.7 443.2 100.5Q442.9 100.2 442.8 100.0L442.8 100.0L442.8 100.0L442.8 103.4ZM444.1 99.7L444.1 99.7Q444.6 99.7 444.9 99.4Q445.2 99.2 445.4 98.8Q445.5 98.3 445.5 97.7L445.5 97.7Q445.5 97.2 445.4 96.7Q445.2 96.3 444.9 96.0Q444.6 95.8 444.1 95.8L444.1 95.8Q443.7 95.8 443.4 96.0Q443.0 96.3 442.9 96.7Q442.7 97.1 442.7 97.7L442.7 97.7Q442.7 98.3 442.9 98.8Q443.0 99.2 443.4 99.5Q443.7 99.7 444.1 99.7ZM451.5 101.1L451.5 101.1Q450.5 101.1 449.8 100.7Q449.1 100.3 448.7 99.6Q448.3 98.8 448.3 97.8L448.3 97.8Q448.3 96.7 448.7 96.0Q449.1 95.2 449.8 94.8Q450.5 94.4 451.4 94.4L451.4 94.4Q452.1 94.4 452.6 94.6Q453.2 94.8 453.6 95.2Q454.0 95.6 454.3 96.2Q454.5 96.8 454.5 97.7L454.5 97.7L454.5 98.2L450.0 98.2Q450.0 98.7 450.2 99.0L450.2 99.0Q450.4 99.4 450.7 99.6Q451.1 99.8 451.5 99.8L451.5 99.8Q451.9 99.8 452.1 99.7Q452.4 99.6 452.5 99.5Q452.7 99.3 452.8 99.0L452.8 99.0L454.4 99.3Q454.3 99.9 453.9 100.3Q453.5 100.7 452.9 100.9Q452.3 101.1 451.5 101.1ZM450.0 97.1L450.0 97.1L452.8 97.1Q452.8 96.8 452.7 96.5L452.7 96.5Q452.5 96.1 452.2 95.9Q451.9 95.7 451.4 95.7L451.4 95.7Q451.0 95.7 450.7 95.9Q450.4 96.1 450.2 96.5L450.2 96.5Q450.1 96.7 450.0 97.1ZM457.5 97.2L457.5 97.2L457.5 101L455.7 101L455.7 94.4L457.4 94.4L457.4 95.8Q457.6 95.2 458.1 94.8L458.1 94.8Q458.6 94.4 459.4 94.4L459.4 94.4Q460.1 94.4 460.6 94.7Q461.1 95.0 461.4 95.5Q461.7 96.1 461.7 96.8L461.7 96.8L461.7 101L459.9 101L459.9 97.1Q459.9 96.5 459.6 96.2Q459.3 95.8 458.7 95.8L458.7 95.8Q458.4 95.8 458.1 96.0Q457.8 96.2 457.6 96.5Q457.5 96.8 457.5 97.2ZM467.0 101.1L467.0 101.1Q465.9 101.1 465.0 100.6Q464.0 100.1 463.5 99.1Q463.0 98.1 463.0 96.6L463.0 96.6Q463.0 95.2 463.5 94.2Q464.0 93.2 465.0 92.7Q465.9 92.2 467.0 92.2L467.0 92.2Q467.8 92.2 468.4 92.4Q469.1 92.6 469.6 93.0Q470.1 93.4 470.4 93.9Q470.7 94.5 470.8 95.3L470.8 95.3L469.0 95.3Q468.9 94.9 468.8 94.6Q468.6 94.3 468.3 94.1Q468.1 93.9 467.8 93.8Q467.4 93.7 467.1 93.7L467.1 93.7Q466.4 93.7 465.9 94.1Q465.4 94.4 465.1 95.1Q464.8 95.7 464.8 96.6L464.8 96.6Q464.8 97.6 465.1 98.2Q465.4 98.9 465.9 99.2Q466.4 99.5 467.1 99.5L467.1 99.5Q467.4 99.5 467.8 99.4Q468.1 99.3 468.3 99.1Q468.6 98.9 468.8 98.7Q468.9 98.4 469.0 98.0L469.0 98.0L470.8 98.0Q470.7 98.6 470.4 99.2Q470.1 99.7 469.7 100.2Q469.2 100.6 468.5 100.9Q467.9 101.1 467.0 101.1ZM477.0 101L474.7 101L471.6 92.3L473.6 92.3L475.0 96.5Q475.2 97.3 475.5 98.2L475.5 98.2Q475.7 98.9 475.8 99.6L475.8 99.6Q476.0 98.9 476.2 98.2L476.2 98.2Q476.4 97.3 476.7 96.5L476.7 96.5L478.0 92.3L480.0 92.3L477.0 101Z "/></g><defs><clipPath id="satori_bc-id-2-1-1-4" clip-path="url(#satori_cp-id)"><path x="502" y="84" width="62" height="25" d="M508,84 h50 a6,6 0 0 1 6,6 v13 a6,6 0 0 1 -6,6 h-50 a6,6 0 0 1 -6,-6 v-13 a6,6 0 0 1 6,-6"/></clipPath></defs><mask id="satori_om-id-2-1-1-4"><rect x="503" y="85" width="60" height="23" fill="#fff" mask="url(#satori_om-id)"/><path width="62" height="25" fill="none" stroke="#000" stroke-width="2" d="M503.757,85.757 A6,6 0 0 1 508,84 h50 a6,6 0 0 1 6,6 v13 a6,6 0 0 1 -6,6 h-50 a6,6 0 0 1 -6,-6 v-13 A6,6 0 0 1 503.757,85.757"/></mask><path x="502" y="84" width="62" height="25" fill="#60a5fa15" d="M508,84 h50 a6,6 0 0 1 6,6 v13 a6,6 0 0 1 -6,6 h-50 a6,6 0 0 1 -6,-6 v-13 a6,6 0 0 1 6,-6" clip-path="url(#satori_cp-id)" mask="url(#satori_om-id)"/><path width="62" height="25" clip-path="url(#satori_bc-id-2-1-1-4)" fill="none" stroke="#60a5fa35" stroke-width="2" d="M503.757,85.757 A6,6 0 0 1 508,84 h50 a6,6 0 0 1 6,6 v13 a6,6 0 0 1 -6,6 h-50 a6,6 0 0 1 -6,-6 v-13 A6,6 0 0 1 503.757,85.757"/><g mask="url(#satori_om-id)" clip-path="url(#satori_cp-id)"><path fill="rgba(225,220,255,0.85)" d="M518.6 101L516.8 101L516.8 92.3L520.2 92.3Q521.2 92.3 521.9 92.6Q522.6 93.0 523.0 93.6Q523.3 94.3 523.3 95.1Q523.3 96.0 522.9 96.6Q522.6 97.2 521.9 97.5L521.9 97.5Q521.8 97.6 521.8 97.6L521.8 97.6L523.6 101L521.6 101L520.0 97.9L518.6 97.9L518.6 101ZM518.6 93.7L518.6 96.4L519.9 96.4Q520.4 96.4 520.8 96.3Q521.1 96.1 521.3 95.8Q521.5 95.5 521.5 95.1L521.5 95.1Q521.5 94.7 521.3 94.4Q521.1 94.1 520.8 93.9Q520.4 93.7 519.9 93.7L519.9 93.7L518.6 93.7ZM527.6 101.1L527.6 101.1Q526.6 101.1 525.9 100.7Q525.1 100.3 524.7 99.6Q524.4 98.8 524.4 97.8L524.4 97.8Q524.4 96.7 524.7 96.0Q525.1 95.2 525.8 94.8Q526.5 94.4 527.5 94.4L527.5 94.4Q528.1 94.4 528.7 94.6Q529.3 94.8 529.7 95.2Q530.1 95.6 530.3 96.2Q530.6 96.8 530.6 97.7L530.6 97.7L530.6 98.2L526.1 98.2Q526.1 98.7 526.3 99.0L526.3 99.0Q526.5 99.4 526.8 99.6Q527.2 99.8 527.6 99.8L527.6 99.8Q527.9 99.8 528.2 99.7Q528.4 99.6 528.6 99.5Q528.8 99.3 528.9 99.0L528.9 99.0L530.5 99.3Q530.3 99.9 529.9 100.3Q529.5 100.7 528.9 100.9Q528.4 101.1 527.6 101.1ZM526.1 97.1L526.1 97.1L528.9 97.1Q528.8 96.8 528.7 96.5L528.7 96.5Q528.6 96.1 528.3 95.9Q528.0 95.7 527.5 95.7L527.5 95.7Q527.1 95.7 526.7 95.9Q526.4 96.1 526.3 96.5L526.3 96.5Q526.1 96.7 526.1 97.1ZM533.6 101.1L533.6 101.1Q533.0 101.1 532.5 100.9Q532.0 100.7 531.7 100.3Q531.4 99.8 531.4 99.2L531.4 99.2Q531.4 98.6 531.6 98.3Q531.8 97.9 532.2 97.7Q532.5 97.4 533.0 97.3Q533.4 97.2 533.9 97.2L533.9 97.2Q534.5 97.1 534.8 97.0Q535.2 97.0 535.3 96.9Q535.5 96.8 535.5 96.6L535.5 96.6L535.5 96.5Q535.5 96.3 535.4 96.1Q535.3 95.9 535.0 95.8Q534.8 95.7 534.5 95.7L534.5 95.7Q534.1 95.7 533.9 95.8Q533.6 95.9 533.5 96.0Q533.3 96.2 533.2 96.4L533.2 96.4L531.6 96.2Q531.8 95.6 532.2 95.2Q532.6 94.8 533.2 94.6Q533.7 94.4 534.5 94.4L534.5 94.4Q535.0 94.4 535.5 94.5Q536.0 94.6 536.4 94.9Q536.8 95.1 537.0 95.6Q537.2 96.0 537.2 96.6L537.2 96.6L537.2 101L535.6 101L535.6 100.1L535.5 100.1Q535.4 100.4 535.1 100.6Q534.8 100.9 534.5 101.0Q534.1 101.1 533.6 101.1ZM534.1 99.9L534.1 99.9Q534.5 99.9 534.8 99.7Q535.1 99.6 535.3 99.3Q535.5 99.0 535.5 98.7L535.5 98.7L535.5 97.9Q535.4 98.0 535.3 98.1Q535.1 98.1 534.9 98.1Q534.7 98.2 534.5 98.2Q534.3 98.2 534.2 98.2L534.2 98.2Q533.9 98.3 533.6 98.4Q533.4 98.5 533.3 98.7Q533.1 98.8 533.1 99.1L533.1 99.1Q533.1 99.4 533.2 99.5Q533.4 99.7 533.6 99.8Q533.8 99.9 534.1 99.9ZM541.7 101.1L541.7 101.1Q540.7 101.1 540.0 100.7Q539.3 100.3 538.9 99.5Q538.5 98.8 538.5 97.8L538.5 97.8Q538.5 96.7 538.9 96.0Q539.3 95.2 540.0 94.8Q540.7 94.4 541.7 94.4L541.7 94.4Q542.3 94.4 542.7 94.5Q543.2 94.7 543.6 95.0Q544.0 95.2 544.2 95.6Q544.5 96.0 544.6 96.5L544.6 96.5L543.0 96.9Q542.9 96.6 542.8 96.4Q542.7 96.2 542.5 96.0Q542.4 95.9 542.2 95.8Q541.9 95.8 541.7 95.8L541.7 95.8Q541.2 95.8 540.9 96.0Q540.6 96.3 540.4 96.7Q540.3 97.2 540.3 97.7L540.3 97.7Q540.3 98.3 540.4 98.8Q540.6 99.2 540.9 99.5Q541.2 99.7 541.7 99.7L541.7 99.7Q541.9 99.7 542.2 99.7Q542.4 99.6 542.5 99.4Q542.7 99.3 542.8 99.1Q542.9 98.9 543.0 98.6L543.0 98.6L544.6 98.9Q544.5 99.4 544.3 99.8Q544.0 100.2 543.6 100.5Q543.3 100.8 542.8 101.0Q542.3 101.1 541.7 101.1ZM547.8 94.4L549.1 94.4L549.1 95.8L547.8 95.8L547.8 99.1Q547.8 99.4 548.0 99.5Q548.1 99.7 548.4 99.7L548.4 99.7Q548.5 99.7 548.7 99.7Q548.9 99.6 549.0 99.6L549.0 99.6L549.2 100.9Q548.9 101.0 548.7 101.1Q548.4 101.1 548.1 101.1L548.1 101.1Q547.1 101.1 546.6 100.6Q546.1 100.1 546.1 99.2L546.1 99.2L546.1 95.8L545.2 95.8L545.2 94.4L546.1 94.4L546.1 92.9L547.8 92.9L547.8 94.4Z "/></g><defs><clipPath id="satori_bc-id-2-1-1-5" clip-path="url(#satori_cp-id)"><path x="571" y="84" width="91" height="25" d="M577,84 h79 a6,6 0 0 1 6,6 v13 a6,6 0 0 1 -6,6 h-79 a6,6 0 0 1 -6,-6 v-13 a6,6 0 0 1 6,-6"/></clipPath></defs><mask id="satori_om-id-2-1-1-5"><rect x="572" y="85" width="89" height="23" fill="#fff" mask="url(#satori_om-id)"/><path width="91" height="25" fill="none" stroke="#000" stroke-width="2" d="M572.757,85.757 A6,6 0 0 1 577,84 h79 a6,6 0 0 1 6,6 v13 a6,6 0 0 1 -6,6 h-79 a6,6 0 0 1 -6,-6 v-13 A6,6 0 0 1 572.757,85.757"/></mask><path x="571" y="84" width="91" height="25" fill="#60a5fa15" d="M577,84 h79 a6,6 0 0 1 6,6 v13 a6,6 0 0 1 -6,6 h-79 a6,6 0 0 1 -6,-6 v-13 a6,6 0 0 1 6,-6" clip-path="url(#satori_cp-id)" mask="url(#satori_om-id)"/><path width="91" height="25" clip-path="url(#satori_bc-id-2-1-1-5)" fill="none" stroke="#60a5fa35" stroke-width="2" d="M572.757,85.757 A6,6 0 0 1 577,84 h79 a6,6 0 0 1 6,6 v13 a6,6 0 0 1 -6,6 h-79 a6,6 0 0 1 -6,-6 v-13 A6,6 0 0 1 572.757,85.757"/><g mask="url(#satori_om-id)" clip-path="url(#satori_cp-id)"><path fill="rgba(225,220,255,0.85)" d="M591.6 101L585.8 101L585.8 92.3L591.6 92.3L591.6 93.8L587.6 93.8L587.6 95.9L591.3 95.9L591.3 97.3L587.6 97.3L587.6 99.5L591.6 99.5L591.6 101ZM594.4 101L592.5 101L594.6 97.6L592.7 94.4L594.6 94.4L595.2 95.5Q595.4 96.0 595.7 96.5L595.7 96.5Q595.7 96.6 595.8 96.8L595.8 96.8Q595.9 96.6 595.9 96.5L595.9 96.5Q596.1 96.0 596.4 95.5L596.4 95.5L597.0 94.4L598.9 94.4L596.9 97.7L599.0 101L597.1 101L596.4 99.8Q596.1 99.3 595.9 98.8L595.9 98.8Q595.8 98.6 595.7 98.5L595.7 98.5Q595.7 98.6 595.6 98.8L595.6 98.8Q595.4 99.3 595.1 99.8L595.1 99.8L594.4 101ZM601.8 103.4L600 103.4L600 94.4L601.7 94.4L601.7 95.6L601.8 95.6Q601.9 95.3 602.2 95.0Q602.4 94.7 602.8 94.6Q603.1 94.4 603.7 94.4L603.7 94.4Q604.4 94.4 605.0 94.7Q605.6 95.1 606.0 95.9Q606.3 96.6 606.3 97.7L606.3 97.7Q606.3 98.8 606.0 99.6Q605.6 100.3 605.0 100.7Q604.4 101.1 603.7 101.1L603.7 101.1Q603.1 101.1 602.8 100.9Q602.4 100.7 602.2 100.5Q601.9 100.2 601.8 100.0L601.8 100.0L601.8 100.0L601.8 103.4ZM603.1 99.7L603.1 99.7Q603.6 99.7 603.9 99.4Q604.2 99.2 604.4 98.8Q604.5 98.3 604.5 97.7L604.5 97.7Q604.5 97.2 604.4 96.7Q604.2 96.3 603.9 96.0Q603.6 95.8 603.1 95.8L603.1 95.8Q602.7 95.8 602.4 96.0Q602.0 96.3 601.9 96.7Q601.7 97.1 601.7 97.7L601.7 97.7Q601.7 98.3 601.9 98.8Q602.1 99.2 602.4 99.5Q602.7 99.7 603.1 99.7ZM609.3 101L607.6 101L607.6 94.4L609.3 94.4L609.3 95.6L609.3 95.6Q609.5 95.0 609.9 94.7Q610.4 94.4 610.9 94.4L610.9 94.4Q611.1 94.4 611.2 94.4Q611.4 94.4 611.5 94.4L611.5 94.4L611.5 96.0Q611.4 95.9 611.1 95.9Q610.9 95.9 610.7 95.9L610.7 95.9Q610.3 95.9 610.0 96.1Q609.7 96.2 609.5 96.6Q609.3 96.9 609.3 97.3L609.3 97.3L609.3 101ZM615.4 101.1L615.4 101.1Q614.4 101.1 613.7 100.7Q613.0 100.3 612.6 99.6Q612.2 98.8 612.2 97.8L612.2 97.8Q612.2 96.7 612.6 96.0Q612.9 95.2 613.7 94.8Q614.4 94.4 615.3 94.4L615.3 94.4Q616.0 94.4 616.5 94.6Q617.1 94.8 617.5 95.2Q617.9 95.6 618.2 96.2Q618.4 96.8 618.4 97.7L618.4 97.7L618.4 98.2L613.9 98.2Q613.9 98.7 614.1 99.0L614.1 99.0Q614.3 99.4 614.6 99.6Q615.0 99.8 615.4 99.8L615.4 99.8Q615.8 99.8 616.0 99.7Q616.3 99.6 616.4 99.5Q616.6 99.3 616.7 99.0L616.7 99.0L618.3 99.3Q618.1 99.9 617.7 100.3Q617.4 100.7 616.8 100.9Q616.2 101.1 615.4 101.1ZM613.9 97.1L613.9 97.1L616.7 97.1Q616.7 96.8 616.6 96.5L616.6 96.5Q616.4 96.1 616.1 95.9Q615.8 95.7 615.3 95.7L615.3 95.7Q614.9 95.7 614.6 95.9Q614.2 96.1 614.1 96.5L614.1 96.5Q614.0 96.7 613.9 97.1ZM622.2 101.1L622.2 101.1Q621.4 101.1 620.8 100.9Q620.2 100.7 619.8 100.2Q619.4 99.8 619.3 99.2L619.3 99.2L620.9 98.9Q621.1 99.4 621.4 99.6Q621.7 99.8 622.3 99.8L622.3 99.8Q622.8 99.8 623.0 99.6Q623.3 99.5 623.3 99.2L623.3 99.2Q623.3 98.9 623.1 98.7Q622.9 98.6 622.5 98.5L622.5 98.5L621.4 98.3Q620.4 98.1 619.9 97.6Q619.5 97.1 619.5 96.4L619.5 96.4Q619.5 95.8 619.8 95.3Q620.2 94.9 620.8 94.6Q621.4 94.4 622.2 94.4L622.2 94.4Q623.0 94.4 623.6 94.6Q624.1 94.8 624.5 95.2Q624.8 95.6 625.0 96.1L625.0 96.1L623.4 96.4Q623.3 96.1 623.0 95.8Q622.7 95.6 622.3 95.6L622.3 95.6Q621.8 95.6 621.5 95.8Q621.2 96.0 621.2 96.3L621.2 96.3Q621.2 96.5 621.4 96.7Q621.6 96.9 622.1 97.0L622.1 97.0L623.3 97.2Q624.2 97.4 624.7 97.8Q625.1 98.3 625.1 99.0L625.1 99.0Q625.1 99.6 624.8 100.1Q624.4 100.6 623.7 100.9Q623.1 101.1 622.2 101.1ZM628.9 101.1L628.9 101.1Q628.1 101.1 627.5 100.9Q626.9 100.7 626.5 100.2Q626.1 99.8 626.0 99.2L626.0 99.2L627.7 98.9Q627.8 99.4 628.1 99.6Q628.4 99.8 629.0 99.8L629.0 99.8Q629.5 99.8 629.8 99.6Q630.1 99.5 630.1 99.2L630.1 99.2Q630.1 98.9 629.9 98.7Q629.6 98.6 629.2 98.5L629.2 98.5L628.1 98.3Q627.1 98.1 626.7 97.6Q626.2 97.1 626.2 96.4L626.2 96.4Q626.2 95.8 626.5 95.3Q626.9 94.9 627.5 94.6Q628.1 94.4 629.0 94.4L629.0 94.4Q629.7 94.4 630.3 94.6Q630.9 94.8 631.2 95.2Q631.6 95.6 631.7 96.1L631.7 96.1L630.1 96.4Q630.0 96.1 629.7 95.8Q629.5 95.6 629.0 95.6L629.0 95.6Q628.5 95.6 628.2 95.8Q628.0 96.0 628.0 96.3L628.0 96.3Q628.0 96.5 628.1 96.7Q628.3 96.9 628.8 97.0L628.8 97.0L630.0 97.2Q630.9 97.4 631.4 97.8Q631.9 98.3 631.9 99.0L631.9 99.0Q631.9 99.6 631.5 100.1Q631.1 100.6 630.4 100.9Q629.8 101.1 628.9 101.1ZM635.6 101.1L635.6 101.1Q634.3 101.1 633.5 100.4Q632.7 99.7 632.7 98.4L632.7 98.4L632.7 97.9L634.5 97.9L634.5 98.4Q634.5 99.0 634.8 99.4Q635.1 99.7 635.6 99.7L635.6 99.7Q636.1 99.7 636.4 99.4Q636.7 99.0 636.7 98.4L636.7 98.4L636.7 92.3L638.5 92.3L638.5 98.4Q638.5 99.7 637.7 100.4Q637.0 101.1 635.6 101.1ZM643.3 101.1L643.3 101.1Q642.2 101.1 641.5 100.8Q640.7 100.5 640.3 99.9Q639.8 99.2 639.8 98.3L639.8 98.3L641.5 98.3Q641.6 98.7 641.8 99.0Q642.0 99.3 642.4 99.5Q642.8 99.6 643.3 99.6L643.3 99.6Q643.8 99.6 644.1 99.5Q644.5 99.3 644.7 99.1Q644.9 98.8 644.9 98.5L644.9 98.5Q644.9 98.2 644.7 98.0Q644.5 97.8 644.2 97.7Q643.8 97.5 643.4 97.4L643.4 97.4L642.4 97.2Q641.3 96.9 640.7 96.3Q640.0 95.7 640.0 94.8L640.0 94.8Q640.0 94.0 640.5 93.4Q640.9 92.8 641.6 92.5Q642.4 92.2 643.3 92.2L643.3 92.2Q644.3 92.2 645.0 92.5Q645.7 92.8 646.1 93.4Q646.5 94.0 646.5 94.8L646.5 94.8L644.8 94.8Q644.8 94.2 644.4 93.9Q644.0 93.7 643.3 93.7L643.3 93.7Q642.8 93.7 642.5 93.8Q642.2 93.9 642.0 94.1Q641.9 94.4 641.9 94.7L641.9 94.7Q641.9 95.0 642.1 95.2Q642.3 95.4 642.6 95.5Q642.9 95.7 643.3 95.8L643.3 95.8L644.1 96.0Q644.6 96.1 645.1 96.3Q645.6 96.5 645.9 96.8Q646.3 97.1 646.5 97.5Q646.7 98.0 646.7 98.5L646.7 98.5Q646.7 99.3 646.3 99.9Q645.9 100.5 645.1 100.8Q644.4 101.1 643.3 101.1Z "/></g><defs><clipPath id="satori_bc-id-2-1-1-6" clip-path="url(#satori_cp-id)"><path x="669" y="84" width="75" height="25" d="M675,84 h63 a6,6 0 0 1 6,6 v13 a6,6 0 0 1 -6,6 h-63 a6,6 0 0 1 -6,-6 v-13 a6,6 0 0 1 6,-6"/></clipPath></defs><mask id="satori_om-id-2-1-1-6"><rect x="670" y="85" width="73" height="23" fill="#fff" mask="url(#satori_om-id)"/><path width="75" height="25" fill="none" stroke="#000" stroke-width="2" d="M670.757,85.757 A6,6 0 0 1 675,84 h63 a6,6 0 0 1 6,6 v13 a6,6 0 0 1 -6,6 h-63 a6,6 0 0 1 -6,-6 v-13 A6,6 0 0 1 670.757,85.757"/></mask><path x="669" y="84" width="75" height="25" fill="#60a5fa15" d="M675,84 h63 a6,6 0 0 1 6,6 v13 a6,6 0 0 1 -6,6 h-63 a6,6 0 0 1 -6,-6 v-13 a6,6 0 0 1 6,-6" clip-path="url(#satori_cp-id)" mask="url(#satori_om-id)"/><path width="75" height="25" clip-path="url(#satori_bc-id-2-1-1-6)" fill="none" stroke="#60a5fa35" stroke-width="2" d="M670.757,85.757 A6,6 0 0 1 675,84 h63 a6,6 0 0 1 6,6 v13 a6,6 0 0 1 -6,6 h-63 a6,6 0 0 1 -6,-6 v-13 A6,6 0 0 1 670.757,85.757"/><g mask="url(#satori_om-id)" clip-path="url(#satori_cp-id)"><path fill="rgba(225,220,255,0.85)" d="M685.6 101L683.8 101L683.8 92.3L685.8 92.3L688.5 96.7Q688.8 97.0 689.0 97.4Q689.2 97.8 689.4 98.3L689.4 98.3Q689.5 98.6 689.6 98.8L689.6 98.8Q689.6 98.6 689.6 98.4L689.6 98.4Q689.6 97.8 689.6 97.3Q689.5 96.8 689.5 96.5L689.5 96.5L689.5 92.3L691.4 92.3L691.4 101L689.4 101L686.8 97.0Q686.6 96.5 686.3 96.1Q686.1 95.7 685.9 95.2L685.9 95.2Q685.7 94.9 685.5 94.5L685.5 94.5Q685.5 94.8 685.5 95.2L685.5 95.2Q685.6 95.7 685.6 96.2Q685.6 96.7 685.6 97.0L685.6 97.0L685.6 101ZM695.8 101.1L695.8 101.1Q694.8 101.1 694.1 100.7Q693.4 100.3 693.0 99.5Q692.6 98.8 692.6 97.8L692.6 97.8Q692.6 96.7 693.0 96.0Q693.4 95.2 694.1 94.8Q694.8 94.4 695.8 94.4L695.8 94.4Q696.8 94.4 697.5 94.8Q698.3 95.2 698.6 96.0Q699.0 96.7 699.0 97.8L699.0 97.8Q699.0 98.8 698.6 99.5Q698.3 100.3 697.5 100.7Q696.8 101.1 695.8 101.1ZM695.8 99.7L695.8 99.7Q696.3 99.7 696.6 99.5Q696.9 99.2 697.1 98.8Q697.2 98.3 697.2 97.7L697.2 97.7Q697.2 97.2 697.1 96.7Q696.9 96.3 696.6 96.0Q696.3 95.8 695.8 95.8L695.8 95.8Q695.4 95.8 695.0 96.0Q694.7 96.3 694.6 96.7Q694.4 97.2 694.4 97.7L694.4 97.7Q694.4 98.3 694.6 98.8Q694.7 99.2 695.0 99.5Q695.4 99.7 695.8 99.7ZM702.6 101.1L702.6 101.1Q701.9 101.1 701.3 100.7Q700.7 100.3 700.3 99.6Q700.0 98.8 700.0 97.7L700.0 97.7Q700.0 96.6 700.3 95.9Q700.7 95.1 701.3 94.7Q701.9 94.4 702.6 94.4L702.6 94.4Q703.2 94.4 703.6 94.6Q703.9 94.7 704.2 95.0Q704.4 95.3 704.5 95.6L704.5 95.6L704.6 95.6L704.6 92.3L706.3 92.3L706.3 101L704.6 101L704.6 100.0L704.5 100.0Q704.4 100.2 704.2 100.5Q703.9 100.7 703.6 100.9Q703.2 101.1 702.6 101.1ZM703.2 99.7L703.2 99.7Q703.6 99.7 704.0 99.5Q704.3 99.2 704.4 98.8Q704.6 98.3 704.6 97.7L704.6 97.7Q704.6 97.1 704.4 96.7Q704.3 96.3 704.0 96.0Q703.6 95.8 703.2 95.8L703.2 95.8Q702.7 95.8 702.4 96.0Q702.1 96.3 701.9 96.7Q701.8 97.2 701.8 97.7L701.8 97.7Q701.8 98.3 701.9 98.8Q702.1 99.2 702.4 99.4Q702.7 99.7 703.2 99.7ZM710.8 101.1L710.8 101.1Q709.8 101.1 709.1 100.7Q708.3 100.3 707.9 99.6Q707.5 98.8 707.5 97.8L707.5 97.8Q707.5 96.7 707.9 96.0Q708.3 95.2 709.0 94.8Q709.7 94.4 710.7 94.4L710.7 94.4Q711.3 94.4 711.9 94.6Q712.4 94.8 712.9 95.2Q713.3 95.6 713.5 96.2Q713.8 96.8 713.8 97.7L713.8 97.7L713.8 98.2L709.3 98.2Q709.3 98.7 709.5 99.0L709.5 99.0Q709.7 99.4 710.0 99.6Q710.4 99.8 710.8 99.8L710.8 99.8Q711.1 99.8 711.4 99.7Q711.6 99.6 711.8 99.5Q712.0 99.3 712.1 99.0L712.1 99.0L713.7 99.3Q713.5 99.9 713.1 100.3Q712.7 100.7 712.1 100.9Q711.5 101.1 710.8 101.1ZM709.3 97.1L709.3 97.1L712.1 97.1Q712.0 96.8 711.9 96.5L711.9 96.5Q711.8 96.1 711.5 95.9Q711.2 95.7 710.7 95.7L710.7 95.7Q710.3 95.7 709.9 95.9Q709.6 96.1 709.4 96.5L709.4 96.5Q709.3 96.7 709.3 97.1ZM717.5 101.1L717.5 101.1Q716.2 101.1 715.4 100.4Q714.6 99.7 714.6 98.4L714.6 98.4L714.6 97.9L716.4 97.9L716.4 98.4Q716.4 99.0 716.7 99.4Q717.0 99.7 717.5 99.7L717.5 99.7Q718.1 99.7 718.4 99.4Q718.7 99.0 718.7 98.4L718.7 98.4L718.7 92.3L720.4 92.3L720.4 98.4Q720.4 99.7 719.7 100.4Q718.9 101.1 717.5 101.1ZM725.2 101.1L725.2 101.1Q724.2 101.1 723.4 100.8Q722.6 100.5 722.2 99.9Q721.8 99.2 721.7 98.3L721.7 98.3L723.5 98.3Q723.5 98.7 723.7 99.0Q724.0 99.3 724.3 99.5Q724.7 99.6 725.2 99.6L725.2 99.6Q725.7 99.6 726.0 99.5Q726.4 99.3 726.6 99.1Q726.8 98.8 726.8 98.5L726.8 98.5Q726.8 98.2 726.6 98.0Q726.4 97.8 726.1 97.7Q725.8 97.5 725.3 97.4L725.3 97.4L724.3 97.2Q723.2 96.9 722.6 96.3Q722.0 95.7 722.0 94.8L722.0 94.8Q722.0 94.0 722.4 93.4Q722.8 92.8 723.6 92.5Q724.3 92.2 725.2 92.2L725.2 92.2Q726.2 92.2 726.9 92.5Q727.7 92.8 728.1 93.4Q728.5 94.0 728.5 94.8L728.5 94.8L726.7 94.8Q726.7 94.2 726.3 93.9Q725.9 93.7 725.2 93.7L725.2 93.7Q724.8 93.7 724.5 93.8Q724.1 93.9 724.0 94.1Q723.8 94.4 723.8 94.7L723.8 94.7Q723.8 95.0 724.0 95.2Q724.2 95.4 724.5 95.5Q724.8 95.7 725.2 95.8L725.2 95.8L726.0 96.0Q726.5 96.1 727.0 96.3Q727.5 96.5 727.8 96.8Q728.2 97.1 728.4 97.5Q728.6 98.0 728.6 98.5L728.6 98.5Q728.6 99.3 728.2 99.9Q727.8 100.5 727.0 100.8Q726.3 101.1 725.2 101.1Z "/></g><mask id="satori_om-id-2-2"><rect x="33" y="123" width="794" height="25" fill="#fff" mask="url(#satori_om-id)"/></mask><mask id="satori_om-id-2-2-0"><rect x="33" y="130" width="80" height="12" fill="#fff" mask="url(#satori_om-id)"/></mask><g mask="url(#satori_om-id)" clip-path="url(#satori_cp-id)"><path fill="#c90202" d="M36.2 140L36.2 140L33.7 140L33.7 132.7L36.2 132.7Q37.3 132.7 38.1 133.2Q38.9 133.6 39.3 134.4Q39.8 135.2 39.8 136.4L39.8 136.4Q39.8 137.5 39.3 138.3Q38.9 139.1 38.1 139.6Q37.3 140 36.2 140ZM35.1 134.0L35.1 138.7L36.1 138.7Q36.8 138.7 37.3 138.5Q37.8 138.2 38.0 137.7Q38.3 137.2 38.3 136.4L38.3 136.4Q38.3 135.5 38.0 135.0Q37.8 134.5 37.3 134.3Q36.9 134.0 36.2 134.0L36.2 134.0L35.1 134.0ZM43.1 140L41.5 140L43.9 132.7L45.9 132.7L48.4 140L46.8 140L46.2 138.3L43.6 138.3L43.1 140ZM44.0 137.1L45.8 137.1L45.6 136.5Q45.4 135.8 45.2 135L45.2 135Q45.1 134.5 44.9 133.9L44.9 133.9Q44.8 134.5 44.6 135.0L44.6 135.0Q44.4 135.8 44.2 136.5L44.2 136.5L44.0 137.1ZM52.3 134.0L50.1 134.0L50.1 132.7L56.0 132.7L56.0 134.0L53.8 134.0L53.8 140L52.3 140L52.3 134.0ZM59.2 140L57.6 140L60.1 132.7L62.0 132.7L64.6 140L62.9 140L62.4 138.3L59.8 138.3L59.2 140ZM60.2 137.1L62.0 137.1L61.8 136.5Q61.6 135.8 61.3 135L61.3 135Q61.2 134.5 61.0 133.9L61.0 133.9Q60.9 134.5 60.8 135.0L60.8 135.0Q60.6 135.8 60.4 136.5L60.4 136.5L60.2 137.1ZM69.6 140L66.5 140L66.5 132.7L69.4 132.7Q70.2 132.7 70.7 133.0Q71.2 133.2 71.5 133.6Q71.8 134.0 71.8 134.6L71.8 134.6Q71.8 135.0 71.6 135.3Q71.4 135.7 71.1 135.9Q70.8 136.1 70.5 136.2L70.5 136.2L70.5 136.2Q70.9 136.2 71.2 136.5Q71.6 136.7 71.8 137.1Q72.1 137.5 72.1 138.0L72.1 138.0Q72.1 138.6 71.8 139.0Q71.5 139.5 70.9 139.7Q70.4 140 69.6 140L69.6 140ZM68.0 136.8L68.0 138.8L69.3 138.8Q69.9 138.8 70.2 138.5Q70.5 138.3 70.5 137.9L70.5 137.9Q70.5 137.5 70.4 137.3Q70.2 137.1 70.0 136.9Q69.7 136.8 69.3 136.8L69.3 136.8L68.0 136.8ZM68.0 133.9L68.0 135.8L69.2 135.8Q69.5 135.8 69.7 135.7Q70.0 135.6 70.1 135.3Q70.3 135.1 70.3 134.8L70.3 134.8Q70.3 134.4 70.0 134.2Q69.7 133.9 69.2 133.9L69.2 133.9L68.0 133.9ZM75.3 140L73.7 140L76.2 132.7L78.1 132.7L80.7 140L79.0 140L78.5 138.3L75.9 138.3L75.3 140ZM76.2 137.1L78.1 137.1L77.8 136.5Q77.6 135.8 77.4 135L77.4 135Q77.3 134.5 77.1 133.9L77.1 133.9Q77.0 134.5 76.9 135.0L76.9 135.0Q76.7 135.8 76.5 136.5L76.5 136.5L76.2 137.1ZM85.2 140.1L85.2 140.1Q84.4 140.1 83.7 139.8Q83.1 139.6 82.7 139.0Q82.3 138.5 82.3 137.7L82.3 137.7L83.8 137.7Q83.8 138.1 84.0 138.4Q84.2 138.6 84.5 138.7Q84.8 138.8 85.2 138.8L85.2 138.8Q85.6 138.8 85.9 138.7Q86.2 138.6 86.4 138.4Q86.5 138.2 86.5 137.9L86.5 137.9Q86.5 137.7 86.4 137.5Q86.2 137.3 86.0 137.2Q85.7 137.1 85.3 137.0L85.3 137.0L84.5 136.8Q83.6 136.6 83.0 136.1Q82.5 135.6 82.5 134.8L82.5 134.8Q82.5 134.2 82.9 133.7Q83.2 133.2 83.8 132.9Q84.5 132.6 85.3 132.6L85.3 132.6Q86.1 132.6 86.7 132.9Q87.3 133.2 87.6 133.7Q87.9 134.2 87.9 134.8L87.9 134.8L86.5 134.8Q86.5 134.4 86.1 134.1Q85.8 133.9 85.2 133.9L85.2 133.9Q84.9 133.9 84.6 134.0Q84.3 134.1 84.2 134.3Q84.0 134.5 84.0 134.7L84.0 134.7Q84.0 135.0 84.2 135.2Q84.4 135.3 84.6 135.5Q84.9 135.6 85.2 135.6L85.2 135.6L85.9 135.8Q86.3 135.9 86.7 136.1Q87.1 136.3 87.4 136.5Q87.7 136.8 87.9 137.1Q88.0 137.5 88.0 137.9L88.0 137.9Q88.0 138.6 87.7 139.1Q87.4 139.6 86.7 139.8Q86.1 140.1 85.2 140.1ZM95.0 140L90.1 140L90.1 132.7L95.0 132.7L95.0 134.0L91.6 134.0L91.6 135.7L94.7 135.7L94.7 136.9L91.6 136.9L91.6 138.8L95.0 138.8L95.0 140ZM99.9 140.1L99.9 140.1Q99.0 140.1 98.3 139.8Q97.7 139.6 97.3 139.0Q97.0 138.5 96.9 137.7L96.9 137.7L98.4 137.7Q98.4 138.1 98.6 138.4Q98.8 138.6 99.1 138.7Q99.4 138.8 99.8 138.8L99.8 138.8Q100.2 138.8 100.5 138.7Q100.8 138.6 101 138.4Q101.2 138.2 101.2 137.9L101.2 137.9Q101.2 137.7 101.0 137.5Q100.9 137.3 100.6 137.2Q100.3 137.1 99.9 137.0L99.9 137.0L99.1 136.8Q98.2 136.6 97.7 136.1Q97.1 135.6 97.1 134.8L97.1 134.8Q97.1 134.2 97.5 133.7Q97.9 133.2 98.5 132.9Q99.1 132.6 99.9 132.6L99.9 132.6Q100.7 132.6 101.3 132.9Q101.9 133.2 102.2 133.7Q102.6 134.2 102.6 134.8L102.6 134.8L101.1 134.8Q101.1 134.4 100.8 134.1Q100.4 133.9 99.9 133.9L99.9 133.9Q99.5 133.9 99.2 134.0Q98.9 134.1 98.8 134.3Q98.7 134.5 98.7 134.7L98.7 134.7Q98.7 135.0 98.8 135.2Q99.0 135.3 99.3 135.5Q99.5 135.6 99.8 135.6L99.8 135.6L100.5 135.8Q101.0 135.9 101.3 136.1Q101.7 136.3 102.0 136.5Q102.3 136.8 102.5 137.1Q102.7 137.5 102.7 137.9L102.7 137.9Q102.7 138.6 102.3 139.1Q102.0 139.6 101.4 139.8Q100.7 140.1 99.9 140.1Z "/></g><mask id="satori_om-id-2-2-1"><rect x="129" y="123" width="164" height="25" fill="#fff" mask="url(#satori_om-id)"/></mask><defs><clipPath id="satori_bc-id-2-2-1-0" clip-path="url(#satori_cp-id)"><path x="129" y="123" width="71" height="25" d="M135,123 h59 a6,6 0 0 1 6,6 v13 a6,6 0 0 1 -6,6 h-59 a6,6 0 0 1 -6,-6 v-13 a6,6 0 0 1 6,-6"/></clipPath></defs><mask id="satori_om-id-2-2-1-0"><rect x="130" y="124" width="69" height="23" fill="#fff" mask="url(#satori_om-id)"/><path width="71" height="25" fill="none" stroke="#000" stroke-width="2" d="M130.757,124.757 A6,6 0 0 1 135,123 h59 a6,6 0 0 1 6,6 v13 a6,6 0 0 1 -6,6 h-59 a6,6 0 0 1 -6,-6 v-13 A6,6 0 0 1 130.757,124.757"/></mask><path x="129" y="123" width="71" height="25" fill="#c9020215" d="M135,123 h59 a6,6 0 0 1 6,6 v13 a6,6 0 0 1 -6,6 h-59 a6,6 0 0 1 -6,-6 v-13 a6,6 0 0 1 6,-6" clip-path="url(#satori_cp-id)" mask="url(#satori_om-id)"/><path width="71" height="25" clip-path="url(#satori_bc-id-2-2-1-0)" fill="none" stroke="#c9020235" stroke-width="2" d="M130.757,124.757 A6,6 0 0 1 135,123 h59 a6,6 0 0 1 6,6 v13 a6,6 0 0 1 -6,6 h-59 a6,6 0 0 1 -6,-6 v-13 A6,6 0 0 1 130.757,124.757"/><g mask="url(#satori_om-id)" clip-path="url(#satori_cp-id)"><path fill="rgba(225,220,255,0.85)" d="M145.6 140L143.8 140L143.8 131.3L146.5 131.3L148.0 135.3Q148.0 135.6 148.2 136.0Q148.3 136.4 148.4 137.0L148.4 137.0Q148.5 137.5 148.6 137.9L148.6 137.9Q148.7 137.5 148.8 137.0L148.8 137.0Q148.9 136.5 149.0 136.0Q149.2 135.6 149.2 135.3L149.2 135.3L150.6 131.3L153.4 131.3L153.4 140L151.6 140L151.6 135.9Q151.6 135.6 151.6 135.2Q151.6 134.7 151.6 134.2Q151.6 133.8 151.7 133.3L151.7 133.3Q151.7 133.0 151.7 132.8L151.7 132.8Q151.6 133.1 151.5 133.3L151.5 133.3Q151.4 133.8 151.3 134.3Q151.1 134.8 151.0 135.2Q150.9 135.6 150.8 135.9L150.8 135.9L149.3 140L147.8 140L146.4 135.9Q146.3 135.6 146.2 135.2Q146.0 134.8 145.9 134.3Q145.8 133.8 145.6 133.3L145.6 133.3Q145.6 133.1 145.5 132.9L145.5 132.9Q145.5 133.0 145.5 133.2L145.5 133.2Q145.5 133.7 145.5 134.2Q145.5 134.7 145.6 135.2Q145.6 135.6 145.6 135.9L145.6 135.9L145.6 140ZM154.9 142.3L154.9 142.3L155.3 141.0L155.5 141.0Q155.9 141.1 156.1 141.1Q156.4 141.1 156.6 140.9Q156.7 140.7 156.8 140.4L156.8 140.4L156.8 140.0L154.4 133.4L156.2 133.4L157.3 136.8Q157.5 137.5 157.7 138.1L157.7 138.1Q157.7 138.4 157.7 138.6L157.7 138.6Q157.8 138.4 157.9 138.1L157.9 138.1Q158.0 137.5 158.2 136.8L158.2 136.8L159.4 133.4L161.2 133.4L158.4 140.8Q158.2 141.3 157.9 141.7Q157.6 142.1 157.2 142.3Q156.7 142.5 156.0 142.5L156.0 142.5Q155.7 142.5 155.4 142.4Q155.1 142.4 154.9 142.3ZM165.4 140.1L165.4 140.1Q164.3 140.1 163.6 139.8Q162.8 139.5 162.4 138.9Q161.9 138.2 161.9 137.3L161.9 137.3L163.6 137.3Q163.7 137.7 163.9 138.0Q164.1 138.3 164.5 138.5Q164.9 138.6 165.4 138.6L165.4 138.6Q165.9 138.6 166.2 138.5Q166.6 138.3 166.8 138.1Q167.0 137.8 167.0 137.5L167.0 137.5Q167.0 137.2 166.8 137.0Q166.6 136.8 166.3 136.7Q165.9 136.5 165.5 136.4L165.5 136.4L164.5 136.2Q163.4 135.9 162.8 135.3Q162.1 134.7 162.1 133.8L162.1 133.8Q162.1 133.0 162.6 132.4Q163.0 131.8 163.7 131.5Q164.5 131.2 165.4 131.2L165.4 131.2Q166.4 131.2 167.1 131.5Q167.8 131.8 168.2 132.4Q168.6 133.0 168.6 133.8L168.6 133.8L166.9 133.8Q166.9 133.2 166.5 132.9Q166.1 132.7 165.4 132.7L165.4 132.7Q164.9 132.7 164.6 132.8Q164.3 132.9 164.1 133.1Q164.0 133.4 164.0 133.7L164.0 133.7Q164.0 134.0 164.2 134.2Q164.4 134.4 164.7 134.5Q165.0 134.7 165.4 134.8L165.4 134.8L166.2 135.0Q166.7 135.1 167.2 135.3Q167.7 135.5 168.0 135.8Q168.4 136.1 168.6 136.5Q168.8 137.0 168.8 137.5L168.8 137.5Q168.8 138.3 168.4 138.9Q168.0 139.5 167.2 139.8Q166.5 140.1 165.4 140.1ZM173.9 140.1L173.9 140.1Q172.7 140.1 171.8 139.6Q170.9 139.1 170.3 138.1Q169.8 137.1 169.8 135.6L169.8 135.6Q169.8 134.2 170.3 133.2Q170.9 132.2 171.8 131.7Q172.7 131.2 173.9 131.2L173.9 131.2Q175.0 131.2 176.0 131.7Q176.9 132.2 177.4 133.2Q178.0 134.2 178.0 135.6L178.0 135.6Q178.0 137.1 177.4 138.1L177.4 138.1Q177.1 138.7 176.6 139.1L176.6 139.1L177.9 140.7L176.2 140.7L175.5 139.8Q174.7 140.1 173.9 140.1ZM174.4 138.5L173.3 137L174.9 137L175.5 137.8Q175.7 137.6 175.9 137.2L175.9 137.2Q176.1 136.6 176.1 135.6L176.1 135.6Q176.1 134.7 175.9 134.0Q175.6 133.4 175.1 133.1Q174.6 132.7 173.9 132.7L173.9 132.7Q173.2 132.7 172.7 133.1Q172.2 133.4 171.9 134.1Q171.6 134.7 171.6 135.6L171.6 135.6Q171.6 136.6 171.9 137.2Q172.2 137.9 172.7 138.2Q173.2 138.5 173.9 138.5L173.9 138.5Q174.2 138.5 174.4 138.5L174.4 138.5ZM184.9 140L179.4 140L179.4 131.3L181.2 131.3L181.2 138.5L184.9 138.5L184.9 140Z "/></g><defs><clipPath id="satori_bc-id-2-2-1-1" clip-path="url(#satori_cp-id)"><path x="207" y="123" width="86" height="25" d="M213,123 h74 a6,6 0 0 1 6,6 v13 a6,6 0 0 1 -6,6 h-74 a6,6 0 0 1 -6,-6 v-13 a6,6 0 0 1 6,-6"/></clipPath></defs><mask id="satori_om-id-2-2-1-1"><rect x="208" y="124" width="84" height="23" fill="#fff" mask="url(#satori_om-id)"/><path width="86" height="25" fill="none" stroke="#000" stroke-width="2" d="M208.757,124.757 A6,6 0 0 1 213,123 h74 a6,6 0 0 1 6,6 v13 a6,6 0 0 1 -6,6 h-74 a6,6 0 0 1 -6,-6 v-13 A6,6 0 0 1 208.757,124.757"/></mask><path x="207" y="123" width="86" height="25" fill="#c9020215" d="M213,123 h74 a6,6 0 0 1 6,6 v13 a6,6 0 0 1 -6,6 h-74 a6,6 0 0 1 -6,-6 v-13 a6,6 0 0 1 6,-6" clip-path="url(#satori_cp-id)" mask="url(#satori_om-id)"/><path width="86" height="25" clip-path="url(#satori_bc-id-2-2-1-1)" fill="none" stroke="#c9020235" stroke-width="2" d="M208.757,124.757 A6,6 0 0 1 213,123 h74 a6,6 0 0 1 6,6 v13 a6,6 0 0 1 -6,6 h-74 a6,6 0 0 1 -6,-6 v-13 A6,6 0 0 1 208.757,124.757"/><g mask="url(#satori_om-id)" clip-path="url(#satori_cp-id)"><path fill="rgba(225,220,255,0.85)" d="M223.6 140L221.8 140L221.8 131.3L224.5 131.3L226.0 135.3Q226.0 135.6 226.2 136.0Q226.3 136.4 226.4 137.0L226.4 137.0Q226.5 137.5 226.6 137.9L226.6 137.9Q226.7 137.5 226.8 137.0L226.8 137.0Q226.9 136.5 227.0 136.0Q227.2 135.6 227.2 135.3L227.2 135.3L228.6 131.3L231.4 131.3L231.4 140L229.6 140L229.6 135.9Q229.6 135.6 229.6 135.2Q229.6 134.7 229.6 134.2Q229.6 133.8 229.7 133.3L229.7 133.3Q229.7 133.0 229.7 132.8L229.7 132.8Q229.6 133.1 229.5 133.3L229.5 133.3Q229.4 133.8 229.3 134.3Q229.1 134.8 229.0 135.2Q228.9 135.6 228.8 135.9L228.8 135.9L227.3 140L225.8 140L224.4 135.9Q224.3 135.6 224.2 135.2Q224.0 134.8 223.9 134.3Q223.8 133.8 223.6 133.3L223.6 133.3Q223.6 133.1 223.5 132.9L223.5 132.9Q223.5 133.0 223.5 133.2L223.5 133.2Q223.5 133.7 223.5 134.2Q223.5 134.7 223.6 135.2Q223.6 135.6 223.6 135.9L223.6 135.9L223.6 140ZM235.9 140.1L235.9 140.1Q234.9 140.1 234.2 139.7Q233.4 139.3 233.0 138.5Q232.7 137.8 232.7 136.8L232.7 136.8Q232.7 135.7 233.0 135.0Q233.4 134.2 234.2 133.8Q234.9 133.4 235.9 133.4L235.9 133.4Q236.8 133.4 237.6 133.8Q238.3 134.2 238.7 135.0Q239.1 135.7 239.1 136.8L239.1 136.8Q239.1 137.8 238.7 138.5Q238.3 139.3 237.6 139.7Q236.8 140.1 235.9 140.1ZM235.9 138.7L235.9 138.7Q236.3 138.7 236.6 138.5Q237.0 138.2 237.1 137.8Q237.3 137.3 237.3 136.7L237.3 136.7Q237.3 136.2 237.1 135.7Q237.0 135.3 236.6 135.0Q236.3 134.8 235.9 134.8L235.9 134.8Q235.4 134.8 235.1 135.0Q234.8 135.3 234.6 135.7Q234.4 136.2 234.4 136.7L234.4 136.7Q234.4 137.3 234.6 137.8Q234.8 138.2 235.1 138.5Q235.4 138.7 235.9 138.7ZM242.0 136.2L242.0 136.2L242.0 140L240.3 140L240.3 133.4L241.9 133.4L242.0 134.8Q242.2 134.2 242.7 133.8L242.7 133.8Q243.2 133.4 244.0 133.4L244.0 133.4Q244.7 133.4 245.2 133.7Q245.7 134.0 246.0 134.5Q246.3 135.1 246.3 135.8L246.3 135.8L246.3 140L244.5 140L244.5 136.1Q244.5 135.5 244.2 135.2Q243.9 134.8 243.3 134.8L243.3 134.8Q242.9 134.8 242.7 135.0Q242.4 135.2 242.2 135.5Q242.0 135.8 242.0 136.2ZM250.7 142.6L250.7 142.6Q249.9 142.6 249.2 142.4Q248.6 142.2 248.3 141.8Q247.9 141.4 247.7 141.0L247.7 141.0L249.2 140.6Q249.3 140.7 249.5 140.9Q249.7 141.1 250.0 141.2Q250.2 141.3 250.7 141.3L250.7 141.3Q251.3 141.3 251.7 141.0Q252.1 140.7 252.1 140.0L252.1 140.0L252.1 138.8L252.0 138.8Q251.8 139.1 251.6 139.3Q251.4 139.6 251.0 139.8Q250.7 139.9 250.2 139.9L250.2 139.9Q249.4 139.9 248.8 139.6Q248.2 139.2 247.8 138.5Q247.5 137.8 247.5 136.7L247.5 136.7Q247.5 135.6 247.9 134.9Q248.2 134.1 248.8 133.7Q249.4 133.4 250.2 133.4L250.2 133.4Q250.7 133.4 251.1 133.6Q251.5 133.7 251.7 134.0Q251.9 134.3 252.0 134.6L252.0 134.6L252.1 134.6L252.1 133.4L253.8 133.4L253.8 139.9Q253.8 140.8 253.4 141.4Q253.0 142.0 252.3 142.3Q251.6 142.6 250.7 142.6ZM250.7 138.6L250.7 138.6Q251.2 138.6 251.5 138.3Q251.8 138.1 251.9 137.7Q252.1 137.3 252.1 136.7L252.1 136.7Q252.1 136.1 251.9 135.7Q251.8 135.3 251.5 135.0Q251.2 134.8 250.7 134.8L250.7 134.8Q250.2 134.8 249.9 135.0Q249.6 135.3 249.5 135.7Q249.3 136.1 249.3 136.7L249.3 136.7Q249.3 137.3 249.5 137.7Q249.6 138.1 249.9 138.3Q250.2 138.6 250.7 138.6ZM258.3 140.1L258.3 140.1Q257.3 140.1 256.6 139.7Q255.8 139.3 255.5 138.5Q255.1 137.8 255.1 136.8L255.1 136.8Q255.1 135.7 255.5 135.0Q255.8 134.2 256.6 133.8Q257.3 133.4 258.3 133.4L258.3 133.4Q259.3 133.4 260.0 133.8Q260.7 134.2 261.1 135.0Q261.5 135.7 261.5 136.8L261.5 136.8Q261.5 137.8 261.1 138.5Q260.7 139.3 260.0 139.7Q259.3 140.1 258.3 140.1ZM258.3 138.7L258.3 138.7Q258.7 138.7 259.1 138.5Q259.4 138.2 259.5 137.8Q259.7 137.3 259.7 136.7L259.7 136.7Q259.7 136.2 259.5 135.7Q259.4 135.3 259.1 135.0Q258.7 134.8 258.3 134.8L258.3 134.8Q257.8 134.8 257.5 135.0Q257.2 135.3 257.0 135.7Q256.9 136.2 256.9 136.7L256.9 136.7Q256.9 137.3 257.0 137.8Q257.2 138.2 257.5 138.5Q257.8 138.7 258.3 138.7ZM265.8 140L265.8 140L262.7 140L262.7 131.3L265.8 131.3Q267.2 131.3 268.1 131.8Q269.0 132.3 269.6 133.3Q270.1 134.3 270.1 135.6L270.1 135.6Q270.1 137.0 269.6 138.0Q269.0 139.0 268.1 139.5Q267.1 140 265.8 140ZM264.5 132.8L264.5 138.5L265.7 138.5Q266.6 138.5 267.1 138.2Q267.7 137.9 268.0 137.2Q268.3 136.6 268.3 135.6L268.3 135.6Q268.3 134.7 268.0 134.0Q267.7 133.4 267.1 133.1Q266.6 132.8 265.7 132.8L265.7 132.8L264.5 132.8ZM275.1 140L271.4 140L271.4 131.3L274.9 131.3Q275.8 131.3 276.5 131.6Q277.1 131.8 277.4 132.4Q277.8 132.9 277.8 133.5L277.8 133.5Q277.8 134.0 277.5 134.4Q277.3 134.8 277.0 135.0Q276.6 135.3 276.2 135.4L276.2 135.4L276.2 135.5Q276.7 135.5 277.1 135.8Q277.5 136.0 277.8 136.5Q278.1 136.9 278.1 137.6L278.1 137.6Q278.1 138.3 277.8 138.8Q277.4 139.4 276.7 139.7Q276.1 140 275.1 140L275.1 140ZM273.2 136.2L273.2 138.5L274.7 138.5Q275.5 138.5 275.9 138.2Q276.3 137.9 276.3 137.4L276.3 137.4Q276.3 137.1 276.1 136.8Q275.9 136.5 275.6 136.3Q275.2 136.2 274.8 136.2L274.8 136.2L273.2 136.2ZM273.2 132.7L273.2 134.9L274.6 134.9Q275.0 134.9 275.3 134.8Q275.6 134.7 275.8 134.4Q275.9 134.2 275.9 133.8L275.9 133.8Q275.9 133.3 275.6 133.0Q275.3 132.7 274.6 132.7L274.6 132.7L273.2 132.7Z "/></g></svg>